<svg width="24" height="24" viewBox="0 0 24 24" fill="none" xmlns="http://www.w3.org/2000/svg">
<mask id="path-1-inside-1_738_1345" fill="white">
<path fill-rule="evenodd" clip-rule="evenodd" d="M18 9.6001C18 6.28639 15.3137 3.6001 12 3.6001C8.68629 3.6001 6 6.28639 6 9.6001V18.0001H18V9.6001Z"/>
</mask>
<path d="M6 18.0001H4.8V19.2001H6V18.0001ZM18 18.0001V19.2001H19.2V18.0001H18ZM12 4.8001C14.651 4.8001 16.8 6.94913 16.8 9.6001H19.2C19.2 5.62365 15.9764 2.4001 12 2.4001V4.8001ZM7.2 9.6001C7.2 6.94913 9.34903 4.8001 12 4.8001V2.4001C8.02355 2.4001 4.8 5.62365 4.8 9.6001H7.2ZM7.2 18.0001V9.6001H4.8V18.0001H7.2ZM18 16.8001H6V19.2001H18V16.8001ZM16.8 9.6001V18.0001H19.2V9.6001H16.8Z" fill="black" mask="url(#path-1-inside-1_738_1345)"/>
<path d="M13.6977 19.8002C13.4506 20.4993 12.7838 21.0002 12.0001 21.0002C11.2164 21.0002 10.5496 20.4993 10.3025 19.8002H13.6977Z" stroke="black" stroke-width="1.2"/>
</svg>
