<svg width="132" height="44" viewBox="0 0 132 44" fill="none" xmlns="http://www.w3.org/2000/svg">
<g filter="url(#filter0_d_192_18365)">
<rect x="4" width="124" height="36" rx="18" fill="#FAFAFA" shape-rendering="crispEdges"/>
<rect x="14" y="8" width="20" height="20" rx="10" fill="#376FA3"/>
<path fill-rule="evenodd" clip-rule="evenodd" d="M24.6673 12H23.334V13.3333H24.6673V12ZM27.3337 13.3335H20.667V14.6668H27.3337V13.3335Z" fill="white"/>
<path fill-rule="evenodd" clip-rule="evenodd" d="M20.667 16H27.3337V21.5C27.3337 22.8807 26.2144 24 24.8337 24H23.167C21.7863 24 20.667 22.8807 20.667 21.5V16ZM22 17.3335H23.3333V22.6668C22.597 22.6668 22 22.0699 22 21.3335V17.3335ZM26.0003 17.3335H24.667V22.6668C25.4034 22.6668 26.0003 22.0699 26.0003 21.3335V17.3335Z" fill="white"/>
<path d="M52.3359 12.5469V13.6953C52.3223 15.1855 52.3359 16.8809 51.8164 19.4238L50.5449 19.2871C50.7705 18.2412 50.9004 17.3184 50.9688 16.4844L43.5996 16.9219L43.4082 15.8008L51.0371 15.5C51.0645 14.8438 51.0645 14.249 51.0645 13.6953V13.6133H43.7773V12.5469H52.3359ZM53.6211 20.9961V22.0762H42.4512V20.9961H46.7031V17.8926H47.9883V20.9961H53.6211ZM60.4215 13.1484C60.4215 15.1445 62.5543 17.0312 64.9059 17.4551L64.3043 18.5352C62.3492 18.1113 60.5445 16.8262 59.7516 15.1035C58.9449 16.8125 57.1471 18.0977 55.1852 18.5352L54.6109 17.4551C56.9352 17.0176 59.0543 15.1445 59.0543 13.1484V12.2188H60.4215V13.1484ZM65.4117 20.9688V22.0488H54.2008V20.9688H65.4117ZM73.2703 13.3672C73.2703 14.9668 74.3914 16.457 76.2508 17.0723L75.5809 18.084C74.2 17.626 73.1814 16.6484 72.6551 15.418C72.115 16.7646 71.0691 17.7969 69.6199 18.3027L68.95 17.2773C70.8777 16.6211 71.9852 15.0352 71.9852 13.2578V12.041H73.2703V13.3672ZM78.6434 11.4121V14.5703H80.4207V15.6641H78.6434V18.8359H77.3445V11.4121H78.6434ZM78.6434 19.3965V23.6621H77.3445V20.4492H70.5496V19.3965H78.6434ZM91.2816 11.4121V23.6621H90.0375V11.4121H91.2816ZM88.7934 11.6719V23.0469H87.5629V16.8125H85.6625V15.7461H87.5629V11.6719H88.7934ZM84.4594 14.8301C84.4594 16.9219 85.307 19.0137 87.0297 20.0117L86.2504 20.9688C85.0814 20.2715 84.2748 19.0342 83.8578 17.5508C83.4135 19.1504 82.5795 20.5107 81.3832 21.2559L80.5902 20.2852C82.3266 19.2324 83.2152 17.0039 83.2152 14.8301V13.8457H80.9594V12.793H86.5648V13.8457H84.4594V14.8301ZM102.061 11.4121V16.375H104.029V17.4551H102.061V23.6621H100.775V11.4121H102.061ZM99.709 13.3262V14.3926H92.4492V13.3262H95.4707V11.5762H96.7695V13.3262H99.709ZM96.127 15.2949C97.877 15.2949 99.1621 16.4707 99.1758 18.1387C99.1621 19.8203 97.877 20.9824 96.127 20.9961C94.3633 20.9824 93.0781 19.8203 93.0781 18.1387C93.0781 16.4707 94.3633 15.2949 96.127 15.2949ZM96.127 16.3613C95.0879 16.3613 94.3086 17.0859 94.3223 18.1387C94.3086 19.2051 95.0879 19.916 96.127 19.9023C97.166 19.916 97.9316 19.2051 97.9316 18.1387C97.9316 17.0859 97.166 16.3613 96.127 16.3613ZM114.453 11.4121V23.6621H113.14V11.4121H114.453ZM110.802 12.7246C110.802 16.3066 109.271 19.4238 105.074 21.4336L104.39 20.3809C107.651 18.8291 109.237 16.6211 109.49 13.7637H104.978V12.7246H110.802Z" fill="black"/>
</g>
<defs>
<filter id="filter0_d_192_18365" x="0" y="0" width="132" height="44" filterUnits="userSpaceOnUse" color-interpolation-filters="sRGB">
<feFlood flood-opacity="0" result="BackgroundImageFix"/>
<feColorMatrix in="SourceAlpha" type="matrix" values="0 0 0 0 0 0 0 0 0 0 0 0 0 0 0 0 0 0 127 0" result="hardAlpha"/>
<feOffset dy="4"/>
<feGaussianBlur stdDeviation="2"/>
<feComposite in2="hardAlpha" operator="out"/>
<feColorMatrix type="matrix" values="0 0 0 0 0 0 0 0 0 0 0 0 0 0 0 0 0 0 0.04 0"/>
<feBlend mode="normal" in2="BackgroundImageFix" result="effect1_dropShadow_192_18365"/>
<feBlend mode="normal" in="SourceGraphic" in2="effect1_dropShadow_192_18365" result="shape"/>
</filter>
</defs>
</svg>
