<?xml version="1.0" encoding="UTF-8"?>
<svg version="1.1" xmlns="http://www.w3.org/2000/svg" width="180" height="309">
<path d="M0 0 C59.4 0 118.8 0 180 0 C180 101.97 180 203.94 180 309 C120.6 309 61.2 309 0 309 C0 207.03 0 105.06 0 0 Z " fill="#386D99" transform="translate(0,0)"/>
<path d="M0 0 C1.8125 2.5625 1.8125 2.5625 3 5 C3.99 5.99 3.99 5.99 5 7 C4.76110915 11.41948076 2.82803819 13.73008085 0 17 C-0.33 17.66 -0.66 18.32 -1 19 C0.32 18.34 1.64 17.68 3 17 C3.61875 17.78375 4.2375 18.5675 4.875 19.375 C6.89858661 21.96837647 6.89858661 21.96837647 9 24 C9.76679965 27.83399823 10.24674659 30.25976024 9 34 C9.66 33.67 10.32 33.34 11 33 C11 27.06 11 21.12 11 15 C11.495 16.98 11.495 16.98 12 19 C12.66 19 13.32 19 14 19 C16.26827586 35.44500001 15.48250564 53.84092834 6.5 68.4375 C4.73096944 71.45959388 3.76966171 74.47969034 2.74609375 77.81640625 C1.38494781 81.8000742 0.59338596 83.60440936 -3 86 C-15.84345861 88.29157145 -33.19525618 81.94188094 -45 77 C-46.02314712 76.02369576 -47.02654113 75.02585468 -48 74 C-50.2603044 73.00626561 -50.2603044 73.00626561 -52.6875 72.3125 C-53.49574219 72.06113281 -54.30398437 71.80976562 -55.13671875 71.55078125 C-55.75160156 71.36902344 -56.36648437 71.18726562 -57 71 C-57 70.34 -57 69.68 -57 69 C-57.66 69 -58.32 69 -59 69 C-59 68.34 -59 67.68 -59 67 C-60.65 67 -62.3 67 -64 67 C-64 48.85 -64 30.7 -64 12 C-61.36 11.01 -58.72 10.02 -56 9 C-55.01 8.608125 -54.02 8.21625 -53 7.8125 C-47.88693476 6.4277115 -43.3928179 6.66950084 -38.3125 7.875 C-37.219375 7.91625 -36.12625 7.9575 -35 8 C-32.55818666 5.56972673 -32.55818666 5.56972673 -31.25 3.6328125 C-24.45353907 -5.24506459 -8.88611613 -5.60211669 0 0 Z " fill="#A698A9" transform="translate(64,23)"/>
<path d="M0 0 C7.26 0 14.52 0 22 0 C22.495 0.99 22.495 0.99 23 2 C23.845625 1.95359375 24.69125 1.9071875 25.5625 1.859375 C32.90703582 1.62568522 37.83673202 1.85164655 44 6 C44.495 7.485 44.495 7.485 45 9 C45.66 9.66 46.32 10.32 47 11 C45.98258185 12.33594116 44.96081288 13.66856873 43.9375 15 C43.30714844 15.82757813 42.67679688 16.65515625 42.02734375 17.5078125 C40 20 40 20 37.94140625 21.9921875 C34.09895737 25.69220425 34.09895737 25.69220425 32.75 30.69921875 C32.99681964 33.52607498 33.42379222 36.22259559 34 39 C35.14845024 45.57748777 35.14845024 45.57748777 34.1875 48.3125 C33 50 33 50 31 52 C26.78913362 52.70181106 24.57852445 51.90440511 21.1875 49.5625 C16.96250195 46.73506345 13.11614868 45.48648322 8 46 C4.72388597 47.71165977 4.72388597 47.71165977 2 50 C-1.12493617 51.7187149 -2.55217269 52.04478273 -6.125 51.6875 C-9.76277496 49.55228426 -10.54336309 47.98246749 -11.67578125 43.99609375 C-12.36453214 37.63137164 -11.06949934 31.27080545 -10 25 C-10.62261719 24.71769531 -11.24523437 24.43539063 -11.88671875 24.14453125 C-14.77440852 22.58058836 -15.6831165 20.98031529 -17 18 C-16.92855851 14.99945735 -16.58518218 13.60956477 -14.5 11.4375 C-11.49521506 9.70974866 -8.38052338 8.52622509 -5.12109375 7.35546875 C-2.24552412 5.77320298 -2.24552412 5.77320298 0 0 Z " fill="#D5BECE" transform="translate(94,0)"/>
<path d="M0 0 C0.66 0 1.32 0 2 0 C1.88119823 6.05889028 1.88119823 6.05889028 -0.37890625 8.47265625 C-4.29620092 11.33832819 -8.49047556 13.25140889 -13 15 C-12.67700753 18.66058131 -12.11094671 19.88768358 -9.46875 22.5625 C-5.96877869 26.62896604 -6.43640708 30.7449784 -6.6875 35.875 C-6.72133789 37.19371094 -6.72133789 37.19371094 -6.75585938 38.5390625 C-6.81440252 40.69345007 -6.90407217 42.8469531 -7 45 C-4.23403962 43.4063672 -2.01921624 42.01921624 0.25 39.75 C3.76038128 37.516121 5.7082275 37.73653347 9.72265625 38.37109375 C13.21600985 39.33581061 15.91029161 41.12194196 19 43 C20.32 43 21.64 43 23 43 C22.98428955 41.84999512 22.98428955 41.84999512 22.96826172 40.67675781 C22.92667301 37.20120526 22.90066449 33.72570509 22.875 30.25 C22.85824219 29.0434375 22.84148437 27.836875 22.82421875 26.59375 C22.81455078 24.85351562 22.81455078 24.85351562 22.8046875 23.078125 C22.78897705 21.47565918 22.78897705 21.47565918 22.77294922 19.84082031 C23.0017825 16.97769764 23.59321666 15.4550142 25 13 C25.37668344 11.34259285 25.72057545 9.67654729 26 8 C25.278125 7.938125 24.55625 7.87625 23.8125 7.8125 C20.11600926 6.7446249 18.46861132 4.89180184 16 2 C16 1.34 16 0.68 16 0 C17.98 0 19.96 0 22 0 C22.495 0.99 22.495 0.99 23 2 C23.845625 1.95359375 24.69125 1.9071875 25.5625 1.859375 C32.90703582 1.62568522 37.83673202 1.85164655 44 6 C44.495 7.485 44.495 7.485 45 9 C45.66 9.66 46.32 10.32 47 11 C45.98258185 12.33594116 44.96081288 13.66856873 43.9375 15 C43.30714844 15.82757813 42.67679688 16.65515625 42.02734375 17.5078125 C40 20 40 20 37.94140625 21.9921875 C34.09895737 25.69220425 34.09895737 25.69220425 32.75 30.69921875 C32.99681964 33.52607498 33.42379222 36.22259559 34 39 C35.14845024 45.57748777 35.14845024 45.57748777 34.1875 48.3125 C33 50 33 50 31 52 C26.78913362 52.70181106 24.57852445 51.90440511 21.1875 49.5625 C16.96250195 46.73506345 13.11614868 45.48648322 8 46 C4.72388597 47.71165977 4.72388597 47.71165977 2 50 C-1.12493617 51.7187149 -2.55217269 52.04478273 -6.125 51.6875 C-9.76277496 49.55228426 -10.54336309 47.98246749 -11.67578125 43.99609375 C-12.36453214 37.63137164 -11.06949934 31.27080545 -10 25 C-10.62261719 24.71769531 -11.24523437 24.43539063 -11.88671875 24.14453125 C-14.77440852 22.58058836 -15.6831165 20.98031529 -17 18 C-16.92855851 14.99945735 -16.58518218 13.60956477 -14.5 11.4375 C-12.17246361 10.09916658 -9.92710033 9.17524387 -7.4375 8.1875 C-3.86164329 6.67599478 -3.12052792 6.18992278 -0.9375 2.75 C-0.628125 1.8425 -0.31875 0.935 0 0 Z " fill="#A797C6" transform="translate(94,0)"/>
<path d="M0 0 C1.8125 2.5625 1.8125 2.5625 3 5 C3.99 5.99 3.99 5.99 5 7 C4.76110915 11.41948076 2.82803819 13.73008085 0 17 C-0.33 17.66 -0.66 18.32 -1 19 C0.32 18.34 1.64 17.68 3 17 C3.61875 17.78375 4.2375 18.5675 4.875 19.375 C6.89858661 21.96837647 6.89858661 21.96837647 9 24 C9.76679965 27.83399823 10.24674659 30.25976024 9 34 C9.66 34.33 10.32 34.66 11 35 C8.36 37.64 5.72 40.28 3 43 C1.515 42.505 1.515 42.505 0 42 C0.66 42 1.32 42 2 42 C2 40.68 2 39.36 2 38 C0.515 37.01 0.515 37.01 -1 36 C-1 35.01 -1 34.02 -1 33 C-1.66 33 -2.32 33 -3 33 C-3.495 33.99 -3.495 33.99 -4 35 C-4.33 33.35 -4.66 31.7 -5 30 C-5.66 30 -6.32 30 -7 30 C-8.625 28.5 -8.625 28.5 -10 27 C-10.99 27.495 -10.99 27.495 -12 28 C-10.8724682 25.23242194 -9.73717318 23.74391233 -7.5625 21.625 C-4.82149244 18.8171386 -3.28616922 16.70719362 -2 13 C-2.82917122 9.92914165 -2.82917122 9.92914165 -4 7 C-3.5703125 4.31640625 -3.5703125 4.31640625 -3 2 C-4.93719378 1.94593878 -6.87481921 1.90717975 -8.8125 1.875 C-9.89144531 1.85179687 -10.97039063 1.82859375 -12.08203125 1.8046875 C-15.19402868 1.76976283 -15.19402868 1.76976283 -18 4 C-17.21625 4.20625 -16.4325 4.4125 -15.625 4.625 C-13 6 -13 6 -11.5625 8.8125 C-10.91695571 12.47058433 -11.1565889 13.81592628 -13 17 C-14.6875 19.375 -14.6875 19.375 -17 21 C-20.625 21 -20.625 21 -24 20 C-25.83528382 17.58076223 -26.36802944 14.94919597 -27 12 C-30.91593446 12.78318689 -34.36406635 14.39179858 -38 16 C-38 15.34 -38 14.68 -38 14 C-41.99498395 12.00250803 -46.28354453 12.83367998 -50.5 13.8125 C-53.00967511 14.66399691 -55.33938496 15.55642905 -57.75 16.625 C-61 18 -61 18 -64 18 C-64 16.02 -64 14.04 -64 12 C-62.05171834 11.26099661 -60.10257602 10.52415533 -58.1484375 9.80078125 C-56.42461054 9.15826393 -54.71054294 8.48958991 -53 7.8125 C-47.88693476 6.4277115 -43.3928179 6.66950084 -38.3125 7.875 C-37.219375 7.91625 -36.12625 7.9575 -35 8 C-32.55818666 5.56972673 -32.55818666 5.56972673 -31.25 3.6328125 C-24.45353907 -5.24506459 -8.88611613 -5.60211669 0 0 Z M-25 8 C-25.33 8.66 -25.66 9.32 -26 10 C-25.34 10 -24.68 10 -24 10 C-24.33 9.34 -24.66 8.68 -25 8 Z " fill="#928DBA" transform="translate(64,23)"/>
<path d="M0 0 C0.495 1.98 0.495 1.98 1 4 C1.66 4 2.32 4 3 4 C5.26827586 20.44500001 4.48250564 38.84092834 -4.5 53.4375 C-6.26903056 56.45959388 -7.23033829 59.47969034 -8.25390625 62.81640625 C-9.61505219 66.8000742 -10.40661404 68.60440936 -14 71 C-26.84345861 73.29157145 -44.19525618 66.94188094 -56 62 C-57.02314712 61.02369576 -58.02654113 60.02585468 -59 59 C-61.2603044 58.00626561 -61.2603044 58.00626561 -63.6875 57.3125 C-64.89986328 56.93544922 -64.89986328 56.93544922 -66.13671875 56.55078125 C-66.75160156 56.36902344 -67.36648437 56.18726563 -68 56 C-68 55.34 -68 54.68 -68 54 C-68.66 54 -69.32 54 -70 54 C-70 53.34 -70 52.68 -70 52 C-71.65 52 -73.3 52 -75 52 C-75 47.05 -75 42.1 -75 37 C-72.70986347 40.4352048 -72.82157027 41.985331 -73 46 C-72.01 46.33 -71.02 46.66 -70 47 C-68 49 -68 49 -67 51 C-65.0085944 51.38133299 -63.00720923 51.71325582 -61 52 C-60.34 52.33 -59.68 52.66 -59 53 C-59 53.66 -59 54.32 -59 55 C-58.14664063 55.11988281 -57.29328125 55.23976562 -56.4140625 55.36328125 C-51.78013198 56.22750399 -47.46777744 57.80668362 -43.0234375 59.35546875 C-39.63456641 60.07790251 -38.84160369 59.76824684 -36 58 C-35.01 58 -34.02 58 -33 58 C-32.34 59.65 -31.68 61.3 -31 63 C-27.65747276 63.07427838 -25.1964086 63.06546953 -22 62 C-22 62.99 -22 63.98 -22 65 C-19.69 65 -17.38 65 -15 65 C-13.1999012 60.09596038 -13.1999012 60.09596038 -13.875 55.0625 C-14.24625 54.381875 -14.6175 53.70125 -15 53 C-13.948125 51.9790625 -13.948125 51.9790625 -12.875 50.9375 C-12.42253906 50.46957031 -11.97007813 50.00164062 -11.50390625 49.51953125 C-10 48 -10 48 -8.40234375 46.63671875 C-3.32490174 41.80878249 -3.01578422 36.59686981 -2.421875 29.81640625 C-2.11196058 27.01282855 -1.71309943 24.7838665 -0.9609375 22.12109375 C0.24975694 17.56158746 0.22432181 13.1910453 0.125 8.5 C0.11597656 7.67757812 0.10695313 6.85515625 0.09765625 6.0078125 C0.07436865 4.00507917 0.03850959 2.00249846 0 0 Z " fill="#796E9A" transform="translate(75,38)"/>
<path d="M0 0 C1.32 0 2.64 0 4 0 C4.433125 0.763125 4.86625 1.52625 5.3125 2.3125 C7.65484154 6.04289579 9.91118793 6.53419945 14 8 C14.125 11.375 14.125 11.375 14 15 C13.34 15.66 12.68 16.32 12 17 C11.72155068 19.71934335 11.72155068 19.71934335 11.8046875 22.8828125 C11.81435547 24.63271484 11.81435547 24.63271484 11.82421875 26.41796875 C11.84097656 27.64128906 11.85773438 28.86460938 11.875 30.125 C11.88402344 31.35605469 11.89304688 32.58710937 11.90234375 33.85546875 C11.92597452 36.90383815 11.95891946 39.95182382 12 43 C7.63975185 44.04502565 5.96958059 43.84008726 2.0625 41.5625 C-3.18441219 38.70282145 -3.18441219 38.70282145 -9 39 C-10.93972113 40.45061041 -12.66817663 41.9808099 -14.38671875 43.6875 C-16 45 -16 45 -19 45 C-19.02505615 44.43490723 -19.0501123 43.86981445 -19.07592773 43.28759766 C-19.19179956 40.73316258 -19.31456537 38.1791045 -19.4375 35.625 C-19.47681641 34.73554687 -19.51613281 33.84609375 -19.55664062 32.9296875 C-19.59853516 32.07890625 -19.64042969 31.228125 -19.68359375 30.3515625 C-19.72025146 29.56604004 -19.75690918 28.78051758 -19.79467773 27.97119141 C-19.890891 25.92476504 -19.890891 25.92476504 -21 24 C-20.01 24 -19.02 24 -18 24 C-16.414131 27.171738 -16.62133555 30.63513822 -16.4375 34.125 C-16.39431641 34.87910156 -16.35113281 35.63320313 -16.30664062 36.41015625 C-16.2005168 38.27321888 -16.09974999 40.13658524 -16 42 C-15.401875 41.21625 -14.80375 40.4325 -14.1875 39.625 C-11.64645654 36.57574785 -10.12360663 35.12213116 -6.125 34.6875 C-2.56615212 35.04338479 -0.91580822 35.98136354 2 38 C2.928125 38.556875 3.85625 39.11375 4.8125 39.6875 C5.534375 40.120625 6.25625 40.55375 7 41 C6.505 38.525 6.505 38.525 6 36 C5.67 36 5.34 36 5 36 C4.87625 34.865625 4.7525 33.73125 4.625 32.5625 C4.41875 31.386875 4.2125 30.21125 4 29 C3.34 28.67 2.68 28.34 2 28 C0.92346817 23.75475301 0.39809694 19.39151373 -0.25 15.0625 C-0.44851562 13.84369141 -0.64703125 12.62488281 -0.8515625 11.36914062 C-1.02945313 10.20705078 -1.20734375 9.04496094 -1.390625 7.84765625 C-1.55594727 6.77523682 -1.72126953 5.70281738 -1.89160156 4.59790039 C-1.92737305 3.74059326 -1.96314453 2.88328613 -2 2 C-1.34 1.34 -0.68 0.68 0 0 Z " fill="#D19CC0" transform="translate(106,0)"/>
<path d="M0 0 C0.66 0 1.32 0 2 0 C1.88119823 6.05889028 1.88119823 6.05889028 -0.37890625 8.47265625 C-4.29620092 11.33832819 -8.49047556 13.25140889 -13 15 C-12.67700753 18.66058131 -12.11094671 19.88768358 -9.46875 22.5625 C-5.96877869 26.62896604 -6.43640708 30.7449784 -6.6875 35.875 C-6.72133789 37.19371094 -6.72133789 37.19371094 -6.75585938 38.5390625 C-6.81440252 40.69345007 -6.90407217 42.8469531 -7 45 C-4.23403962 43.4063672 -2.01921624 42.01921624 0.25 39.75 C3.76669654 37.5121022 5.72116761 37.73254856 9.7421875 38.3828125 C12.49209982 39.13451864 14.77732341 40.40678699 17.1640625 41.953125 C20.00347744 43.57219564 23.05130755 44.38766489 26.1796875 45.2890625 C28 46 28 46 29 48 C29.99 48.33 30.98 48.66 32 49 C32.495 48.01 32.495 48.01 33 47 C32.125 50.875 32.125 50.875 31 52 C26.79019239 52.61606941 24.57468836 51.91320872 21.1875 49.5625 C16.96250195 46.73506345 13.11614868 45.48648322 8 46 C4.72388597 47.71165977 4.72388597 47.71165977 2 50 C-1.12493617 51.7187149 -2.55217269 52.04478273 -6.125 51.6875 C-9.76277496 49.55228426 -10.54336309 47.98246749 -11.67578125 43.99609375 C-12.36453214 37.63137164 -11.06949934 31.27080545 -10 25 C-10.62261719 24.71769531 -11.24523437 24.43539063 -11.88671875 24.14453125 C-14.77440852 22.58058836 -15.6831165 20.98031529 -17 18 C-16.92855851 14.99945735 -16.58518218 13.60956477 -14.5 11.4375 C-12.17246361 10.09916658 -9.92710033 9.17524387 -7.4375 8.1875 C-3.86164329 6.67599478 -3.12052792 6.18992278 -0.9375 2.75 C-0.628125 1.8425 -0.31875 0.935 0 0 Z " fill="#7380AC" transform="translate(94,0)"/>
<path d="M0 0 C0.66 0 1.32 0 2 0 C1.67 1.32 1.34 2.64 1 4 C2.32 3.34 3.64 2.68 5 2 C5.61875 2.78375 6.2375 3.5675 6.875 4.375 C8.89858661 6.96837647 8.89858661 6.96837647 11 9 C11.76679965 12.83399823 12.24674659 15.25976024 11 19 C11.66 19.33 12.32 19.66 13 20 C10.36 22.64 7.72 25.28 5 28 C4.01 27.67 3.02 27.34 2 27 C2.66 27 3.32 27 4 27 C4 25.68 4 24.36 4 23 C3.01 22.34 2.02 21.68 1 21 C1 20.01 1 19.02 1 18 C0.34 18 -0.32 18 -1 18 C-1.33 18.66 -1.66 19.32 -2 20 C-2.33 18.35 -2.66 16.7 -3 15 C-3.66 15 -4.32 15 -5 15 C-6.625 13.5 -6.625 13.5 -8 12 C-8.99 12.495 -8.99 12.495 -10 13 C-8.4373676 9.16444775 -5.93550032 6.86390275 -3 4 C-2.443125 3.236875 -1.88625 2.47375 -1.3125 1.6875 C-0.6628125 0.8521875 -0.6628125 0.8521875 0 0 Z " fill="#5CA2C4" transform="translate(62,38)"/>
<path d="M0 0 C0 0.66 0 1.32 0 2 C-0.53367188 1.855625 -1.06734375 1.71125 -1.6171875 1.5625 C-8.59202166 -0.17517495 -15.41361911 -1.28568371 -22.3125 1.1875 C-26.03146217 3.69563728 -28.90353313 6.67398327 -31.75390625 10.12109375 C-34.68889561 12.57627615 -36.52582036 12.52710699 -40.3125 12.625 C-46.67772292 12.93792716 -51.9213314 14.06135323 -57.75 16.625 C-61 18 -61 18 -64 18 C-64 16.02 -64 14.04 -64 12 C-62.05171834 11.26099661 -60.10257602 10.52415533 -58.1484375 9.80078125 C-56.42461054 9.15826393 -54.71054294 8.48958991 -53 7.8125 C-47.88693476 6.4277115 -43.3928179 6.66950084 -38.3125 7.875 C-37.219375 7.91625 -36.12625 7.9575 -35 8 C-32.55818666 5.56972673 -32.55818666 5.56972673 -31.25 3.6328125 C-24.22943157 -5.53780501 -9.24626438 -5.1607057 0 0 Z " fill="#7091C1" transform="translate(64,23)"/>
<path d="M0 0 C0.33 1.32 0.66 2.64 1 4 C1.66 4 2.32 4 3 4 C4.90597621 17.81832756 3.95577276 29.73228041 0 43 C-0.25007813 43.88558594 -0.50015625 44.77117187 -0.7578125 45.68359375 C-1.86006591 49.13605413 -2.74567638 50.81073591 -5.6875 53 C-6.450625 53.33 -7.21375 53.66 -8 54 C-7.67 52.68 -7.34 51.36 -7 50 C-10.465 52.475 -10.465 52.475 -14 55 C-14 52 -14 52 -11.8125 49.6875 C-10.0109953 47.96606218 -8.17963313 46.27502462 -6.3125 44.625 C-2.84727983 40.4667358 -2.94564965 35.03843477 -2.45703125 29.8515625 C-2.12465202 27.05048622 -1.70959502 24.78307153 -0.95703125 22.1171875 C0.25028913 17.55965013 0.22426479 13.18835224 0.125 8.5 C0.11597656 7.67757812 0.10695313 6.85515625 0.09765625 6.0078125 C0.07436865 4.00507917 0.03850959 2.00249846 0 0 Z " fill="#6F91B9" transform="translate(75,38)"/>
<path d="M0 0 C0.99 0.598125 1.98 1.19625 3 1.8125 C5.7077802 3.37319613 8.36950044 4.57585025 11.3125 5.625 C15 7 15 7 17 9 C19.31765729 9.71927295 21.65095874 10.3909893 24 11 C24 11.66 24 12.32 24 13 C25.19625 13.2475 26.3925 13.495 27.625 13.75 C33.07729147 14.9529659 38.41136237 16.52112336 43.765625 18.09765625 C48.21429445 19.33877055 52.18887281 20.13150936 56.8125 20.0625 C57.60269531 20.05347656 58.39289062 20.04445313 59.20703125 20.03515625 C59.79871094 20.02355469 60.39039063 20.01195313 61 20 C62.51163372 16.56446882 63.91430933 13.28385034 65 9.6875 C66 7 66 7 69 5 C69.42361335 9.65974684 67.97465607 12.82284294 66 17 C65.505 18.1446875 65.505 18.1446875 65 19.3125 C64 21 64 21 61 23 C48.15654139 25.29157145 30.80474382 18.94188094 19 14 C17.97685288 13.02369576 16.97345887 12.02585468 16 11 C13.7396956 10.00626561 13.7396956 10.00626561 11.3125 9.3125 C10.50425781 9.06113281 9.69601562 8.80976562 8.86328125 8.55078125 C8.24839844 8.36902344 7.63351563 8.18726562 7 8 C7 7.34 7 6.68 7 6 C6.34 6 5.68 6 5 6 C5 5.34 5 4.68 5 4 C3.35 4 1.7 4 0 4 C0 2.68 0 1.36 0 0 Z " fill="#5F76A1" transform="translate(0,86)"/>
<path d="M0 0 C0.66 0 1.32 0 2 0 C1.88119823 6.05889028 1.88119823 6.05889028 -0.37890625 8.47265625 C-4.29620092 11.33832819 -8.49047556 13.25140889 -13 15 C-12.67967699 18.63032743 -12.13400562 19.86599438 -9.5 22.5 C-5.84093521 26.75130991 -6.22028545 31.49818688 -6.1875 36.875 C-6.16236328 37.84953125 -6.13722656 38.8240625 -6.11132812 39.828125 C-6.05272442 42.21915628 -6.01625009 44.60836847 -6 47 C-7.98 47.495 -7.98 47.495 -10 48 C-11.65893923 42.43767434 -12.13706687 38.78870406 -11 33 C-10.80191921 31.52221305 -10.61442769 30.04296846 -10.4375 28.5625 C-10.293125 27.386875 -10.14875 26.21125 -10 25 C-10.598125 24.773125 -11.19625 24.54625 -11.8125 24.3125 C-14.6679498 22.59923012 -15.65980327 21.0330768 -17 18 C-16.92855851 14.99945735 -16.58518218 13.60956477 -14.5 11.4375 C-12.17246361 10.09916658 -9.92710033 9.17524387 -7.4375 8.1875 C-3.86164329 6.67599478 -3.12052792 6.18992278 -0.9375 2.75 C-0.628125 1.8425 -0.31875 0.935 0 0 Z " fill="#77A0C7" transform="translate(94,0)"/>
<path d="M0 0 C1.32 0 2.64 0 4 0 C4.33 0.66 4.66 1.32 5 2 C5.845625 1.95359375 6.69125 1.9071875 7.5625 1.859375 C14.90703582 1.62568522 19.83673202 1.85164655 26 6 C26.33 6.99 26.66 7.98 27 9 C27.66 9.66 28.32 10.32 29 11 C27.98258185 12.33594116 26.96081288 13.66856873 25.9375 15 C25.30714844 15.82757813 24.67679688 16.65515625 24.02734375 17.5078125 C22 20 22 20 19.94140625 21.9921875 C16.09895737 25.69220425 16.09895737 25.69220425 14.75 30.69921875 C14.99676093 33.52540254 15.42874142 36.22235865 16 39 C17.09622412 45.71132765 17.09622412 45.71132765 16 49 C11.77609011 44.77609011 11.77724099 37.5925684 11.375 31.875 C11.41511887 28.36682757 11.50101662 26.63559599 13.68359375 23.85546875 C15.72759929 22.13400354 17.83977902 20.5710698 20 19 C23.28564814 14.86644267 23.56500108 11.13298722 24 6 C17.28421494 5.35380762 10.70855883 4.88719422 3.9609375 5.16015625 C2 5 2 5 0 3 C0 2.01 0 1.02 0 0 Z " fill="#6F96C2" transform="translate(112,0)"/>
<path d="M0 0 C6.52606635 1.45023697 6.52606635 1.45023697 8.5625 3.8125 C9.17398739 6.86993697 8.49322673 8.28504231 7 11 C5.3125 13.375 5.3125 13.375 3 15 C-0.75 14.75 -0.75 14.75 -4 14 C-5.06234754 9.57355192 -5.38027857 7.68450143 -3.125 3.625 C-1 1 -1 1 0 0 Z " fill="#8A84B3" transform="translate(44,29)"/>
<path d="M0 0 C0.66 0 1.32 0 2 0 C1.74379316 1.6065676 1.46944129 3.2102483 1.1875 4.8125 C1.03667969 5.70582031 0.88585937 6.59914063 0.73046875 7.51953125 C-0.06572254 10.22317546 -0.73571644 11.34975944 -3 13 C-3.99 13 -4.98 13 -6 13 C-6 13.66 -6 14.32 -6 15 C-8.5 16.625 -8.5 16.625 -11 18 C-10.505 18.45375 -10.01 18.9075 -9.5 19.375 C-8 21 -8 21 -8 23 C-7.34 23 -6.68 23 -6 23 C-3.78992417 28.20017843 -3.91628261 31.58141303 -5 37 C-5.66 37.66 -6.32 38.32 -7 39 C-7.495 31.575 -7.495 31.575 -8 24 C-9.32 23.67 -10.64 23.34 -12 23 C-14.3125 21.25 -14.3125 21.25 -16 19 C-15.9765625 16.5546875 -15.9765625 16.5546875 -15 14 C-12.34765625 12.3046875 -12.34765625 12.3046875 -9.0625 10.875 C-4.27805463 8.87380776 -4.27805463 8.87380776 -1 5 C-0.61500109 3.34450469 -0.27206865 1.6777567 0 0 Z " fill="#BEC3C9" transform="translate(96,0)"/>
<path d="M0 0 C0.8125 2.1875 0.8125 2.1875 1 5 C-1.375 7.75 -1.375 7.75 -4 10 C-4.33 10.33 -4.66 10.66 -5 11 C-6.8125 11.1328125 -6.8125 11.1328125 -9 11.125 C-9.721875 11.12757812 -10.44375 11.13015625 -11.1875 11.1328125 C-13 11 -13 11 -14 10 C-14.04092937 7.66702567 -14.04241723 5.33294775 -14 3 C-12.42274653 2.29866401 -10.83788667 1.614417 -9.25 0.9375 C-7.92742188 0.36322266 -7.92742188 0.36322266 -6.578125 -0.22265625 C-3.84743691 -1.04600008 -2.63098653 -0.9773992 0 0 Z " fill="#ABA1BD" transform="translate(14,38)"/>
<path d="M0 0 C3.66670726 2.4444715 3.93344791 3.81583412 5 8 C5.125 10.875 5.125 10.875 5 13 C5.99 13.33 6.98 13.66 8 14 C7.34 15.32 6.68 16.64 6 18 C3.33333333 17.33333333 0.66666667 16.66666667 -2 16 C-2.07427838 12.65747276 -2.06546953 10.1964086 -1 7 C-1.87483915 4.83284443 -1.87483915 4.83284443 -3 3 C-3.6496875 3.99 -3.6496875 3.99 -4.3125 5 C-4.869375 5.66 -5.42625 6.32 -6 7 C-6.99 7 -7.98 7 -9 7 C-9 5.35 -9 3.7 -9 2 C-5.87350101 0.14725986 -3.62683775 -0.37198336 0 0 Z " fill="#3985AA" transform="translate(63,117)"/>
<path d="M0 0 C2.6259084 0.89629715 4.94771886 2.16604588 7.27734375 3.66796875 C10.65443625 5.60388165 14.40328812 6.6110129 18.1171875 7.72265625 C18.1171875 8.71265625 18.1171875 9.70265625 18.1171875 10.72265625 C8.93872056 8.16502021 8.93872056 8.16502021 4.8671875 5.97265625 C1.38277852 4.38883398 -0.23888923 4.6598453 -3.8828125 5.72265625 C-5.3678125 6.49609375 -5.3678125 6.49609375 -6.8828125 7.28515625 C-10.1690504 8.85981191 -12.28822237 8.97941269 -15.8828125 8.72265625 C-15.8828125 6.72265625 -15.8828125 6.72265625 -14.23046875 4.9609375 C-9.44193805 0.92547487 -6.31823335 -1.30081275 0 0 Z " fill="#9C8AB5" transform="translate(103.8828125,38.27734375)"/>
<path d="M0 0 C0.66 0 1.32 0 2 0 C0.36404494 5.66292135 0.36404494 5.66292135 -1.6875 7.5625 C-3.29596531 8.99115986 -3.29596531 8.99115986 -2.9375 11.5625 C-1.77558862 14.58346959 -0.82417946 14.67616588 2 16 C2.75 18.125 2.75 18.125 3 20 C4.98 20 6.96 20 9 20 C9.33 16.7 9.66 13.4 10 10 C12.08954032 14.17908064 12.16552619 14.80410573 11 19 C11.66 19.33 12.32 19.66 13 20 C10.36 22.64 7.72 25.28 5 28 C4.01 27.67 3.02 27.34 2 27 C2.66 27 3.32 27 4 27 C4 25.68 4 24.36 4 23 C3.01 22.34 2.02 21.68 1 21 C1 20.01 1 19.02 1 18 C0.34 18 -0.32 18 -1 18 C-1.33 18.66 -1.66 19.32 -2 20 C-2.33 18.35 -2.66 16.7 -3 15 C-3.66 15 -4.32 15 -5 15 C-6.625 13.5 -6.625 13.5 -8 12 C-8.99 12.495 -8.99 12.495 -10 13 C-8.4373676 9.16444775 -5.93550032 6.86390275 -3 4 C-2.443125 3.236875 -1.88625 2.47375 -1.3125 1.6875 C-0.6628125 0.8521875 -0.6628125 0.8521875 0 0 Z " fill="#82A3BE" transform="translate(62,38)"/>
<path d="M0 0 C2.29013653 3.4352048 2.17842973 4.985331 2 9 C2.99 9.33 3.98 9.66 5 10 C7 12 7 12 8 14 C9.9914056 14.38133299 11.99279077 14.71325582 14 15 C14.66 15.33 15.32 15.66 16 16 C16 16.66 16 17.32 16 18 C16.84949219 18.12632813 17.69898437 18.25265625 18.57421875 18.3828125 C22.07447145 19.01341675 25.40175934 19.86931875 28.8125 20.875 C29.95332031 21.20242187 31.09414063 21.52984375 32.26953125 21.8671875 C33.17058594 22.24101563 34.07164063 22.61484375 35 23 C35.495 24.485 35.495 24.485 36 26 C34.56208484 25.85831863 33.1246763 25.71148957 31.6875 25.5625 C30.88699219 25.48128906 30.08648438 25.40007812 29.26171875 25.31640625 C27 25 27 25 24 24 C24 23.34 24 22.68 24 22 C22.96875 21.9175 21.9375 21.835 20.875 21.75 C16.60801959 20.92413282 14.51203636 19.48769242 11 17 C8.66875071 15.99515117 6.33556463 14.99477753 4 14 C1.8046875 12.765625 1.8046875 12.765625 0 11 C-0.390625 8.30078125 -0.390625 8.30078125 -0.25 5.3125 C-0.21390625 4.31863281 -0.1778125 3.32476562 -0.140625 2.30078125 C-0.09421875 1.54152344 -0.0478125 0.78226562 0 0 Z " fill="#8A86A3" transform="translate(0,75)"/>
<path d="M0 0 C0.99 0 1.98 0 3 0 C4.585869 3.171738 4.37866445 6.63513822 4.5625 10.125 C4.60568359 10.87910156 4.64886719 11.63320313 4.69335938 12.41015625 C4.7994832 14.27321888 4.90025001 16.13658524 5 18 C5.598125 17.21625 6.19625 16.4325 6.8125 15.625 C9.35354346 12.57574785 10.87639337 11.12213116 14.875 10.6875 C18.50475394 11.05047539 20.01164856 11.93661448 23 14 C24.43436931 14.90083755 25.87205995 15.79640176 27.3125 16.6875 C28.54194398 17.45789096 29.77120566 18.22857328 31 19 C28 20 28 20 25.73046875 19.00390625 C24.89128906 18.52824219 24.05210938 18.05257812 23.1875 17.5625 C17.86714774 14.71307941 17.86714774 14.71307941 12 15 C10.06027887 16.45061041 8.33182337 17.9808099 6.61328125 19.6875 C5 21 5 21 2 21 C1.97494385 20.43490723 1.9498877 19.86981445 1.92407227 19.28759766 C1.80820044 16.73316258 1.68543463 14.1791045 1.5625 11.625 C1.52318359 10.73554687 1.48386719 9.84609375 1.44335938 8.9296875 C1.38051758 7.65351563 1.38051758 7.65351563 1.31640625 6.3515625 C1.27974854 5.56604004 1.24309082 4.78051758 1.20532227 3.97119141 C1.109109 1.92476504 1.109109 1.92476504 0 0 Z " fill="#B99BBF" transform="translate(85,24)"/>
<path d="M0 0 C0 0.99 0 1.98 0 3 C-1.49609375 4.2890625 -1.49609375 4.2890625 -3.4375 5.625 C-5.78087242 7.4959183 -6.85072283 8.48092258 -7.6875 11.390625 C-7.91094309 13.6110907 -8.03469838 15.76939016 -8 18 C-8.66 18 -9.32 18 -10 18 C-12.46907602 15.53092398 -12.68428025 13.50930113 -13.03125 10.1015625 C-12.9818692 6.78070382 -11.86084446 4.69501611 -10 2 C-6.83575399 -0.40046249 -3.87306682 -0.17604849 0 0 Z " fill="#6879A3" transform="translate(49,125)"/>
<path d="M0 0 C-0.33 0.66 -0.66 1.32 -1 2 C-3.6953125 2.34375 -3.6953125 2.34375 -7.125 2.5 C-13.5254857 2.90527093 -18.88390108 4.0448901 -24.75 6.625 C-28 8 -28 8 -31 8 C-31 7.01 -31 6.02 -31 5 C-29.35 4.67 -27.7 4.34 -26 4 C-25.67 3.01 -25.34 2.02 -25 1 C-16.61308347 -1.84556096 -8.643399 -1.25722167 0 0 Z " fill="#9092BC" transform="translate(31,33)"/>
<path d="M0 0 C0.99 0.66 1.98 1.32 3 2 C3.66 2.33 4.32 2.66 5 3 C4.67 3.66 4.34 4.32 4 5 C1.03 4.505 1.03 4.505 -2 4 C-4.97 8.455 -4.97 8.455 -8 13 C-8.33 11.68 -8.66 10.36 -9 9 C-12.91593446 9.78318689 -16.36406635 11.39179858 -20 13 C-20 12.34 -20 11.68 -20 11 C-20.66 10.34 -21.32 9.68 -22 9 C-20.783125 8.95875 -19.56625 8.9175 -18.3125 8.875 C-14.54269882 8.42447894 -14.12229661 8.13394391 -11.375 5.125 C-10.59125 4.09375 -9.8075 3.0625 -9 2 C-3.75524476 -1.25174825 -3.75524476 -1.25174825 0 0 Z M-7 5 C-7.33 5.66 -7.66 6.32 -8 7 C-7.34 7 -6.68 7 -6 7 C-6.33 6.34 -6.66 5.68 -7 5 Z " fill="#9E80B1" transform="translate(46,26)"/>
<path d="M0 0 C0.66 0.33 1.32 0.66 2 1 C0.79899096 4.24272442 -0.11409751 5.07302241 -3.125 7 C-5.59551788 8.90548459 -5.96522969 9.76171171 -6.42578125 12.91796875 C-6.59299056 18.63538267 -6.59299056 18.63538267 -5 24 C-4.93049459 25.54023996 -4.91547643 27.08334988 -4.9375 28.625 C-4.94652344 29.44226563 -4.95554687 30.25953125 -4.96484375 31.1015625 C-4.97644531 31.72804688 -4.98804687 32.35453125 -5 33 C-6.32 32.67 -7.64 32.34 -9 32 C-8.80792969 31.360625 -8.61585937 30.72125 -8.41796875 30.0625 C-8.03765767 27.27592163 -8.12329499 25.48112898 -8.55078125 22.75 C-8.67130859 21.9765625 -8.79183594 21.203125 -8.91601562 20.40625 C-9.18087333 18.79883771 -9.46484616 17.19446148 -9.76757812 15.59375 C-10.61589271 9.84246465 -10.61589271 9.84246465 -8.77490234 7.32421875 C-4.92278829 4 -4.92278829 4 -2 4 C-1.34 2.68 -0.68 1.36 0 0 Z " fill="#8C9CC2" transform="translate(131,16)"/>
<path d="M0 0 C-0.33 0.61875 -0.66 1.2375 -1 1.875 C-3.6174379 10.05449344 -2.84858661 24.30282678 1 32 C-0.98 31.67 -2.96 31.34 -5 31 C-5.07421454 27.06739056 -5.12863136 23.13505278 -5.16479492 19.2019043 C-5.18728333 17.20672299 -5.22540198 15.21173787 -5.26367188 13.21679688 C-5.27333984 11.96318359 -5.28300781 10.70957031 -5.29296875 9.41796875 C-5.3086792 8.26063232 -5.32438965 7.1032959 -5.34057617 5.91088867 C-5 3 -5 3 -3.60668945 1.09887695 C-2 0 -2 0 0 0 Z " fill="#B09EBF" transform="translate(122,14)"/>
<path d="M0 0 C0 3.63 0 7.26 0 11 C-1.65 11 -3.3 11 -5 11 C-5.28875 10.195625 -5.5775 9.39125 -5.875 8.5625 C-6.73262568 5.8673532 -6.73262568 5.8673532 -9 5 C-9 3.35 -9 1.7 -9 0 C-4.5 -2.25 -4.5 -2.25 0 0 Z " fill="#3DACC0" transform="translate(70,48)"/>
<path d="M0 0 C1.43791516 0.14168137 2.8753237 0.28851043 4.3125 0.4375 C5.11300781 0.51871094 5.91351563 0.59992187 6.73828125 0.68359375 C9 1 9 1 12 2 C12.25 9.625 12.25 9.625 10 13 C9.01 12.67 8.02 12.34 7 12 C6.3125 9.9375 6.3125 9.9375 6 8 C5.34 8 4.68 8 4 8 C0 2.58823529 0 2.58823529 0 0 Z M7 3 C7.99 4.485 7.99 4.485 9 6 C9 5.01 9 4.02 9 3 C8.34 3 7.68 3 7 3 Z " fill="#92A6D0" transform="translate(124,4)"/>
<path d="M0 0 C2.8203125 -0.29296875 2.8203125 -0.29296875 6.125 -0.1875 C7.76855469 -0.14689453 7.76855469 -0.14689453 9.4453125 -0.10546875 C10.28835937 -0.07066406 11.13140625 -0.03585938 12 0 C12 0.66 12 1.32 12 2 C10.7625 1.938125 9.525 1.87625 8.25 1.8125 C5.49161495 1.82222975 4.18030898 1.9074089 1.6875 3.1875 C-0.1288179 4.97898715 -0.1288179 4.97898715 -1.3125 7.5 C-3.68484382 11.01458344 -6.05268973 11.58492651 -10 13 C-10.24360427 10.07674878 -10.19608294 8.37152557 -8.8125 5.75 C-6.58183842 3.59625778 -4.99595778 3.53773601 -2 3 C-1.34 2.01 -0.68 1.02 0 0 Z " fill="#537299" transform="translate(168,174)"/>
<path d="M0 0 C1.13672994 3.41018982 0.85110129 4.16728404 -0.3125 7.4375 C-0.57675781 8.19933594 -0.84101562 8.96117188 -1.11328125 9.74609375 C-3.42208301 15.614722 -3.42208301 15.614722 -7 18 C-13.4987569 18.79768135 -19.73703567 17.69432851 -26 16 C-26 15.67 -26 15.34 -26 15 C-19.73 15 -13.46 15 -7 15 C-4.80527858 9.90484097 -4.80527858 9.90484097 -2.9375 4.6875 C-2 2 -2 2 0 0 Z " fill="#59729C" transform="translate(68,91)"/>
<path d="M0 0 C0 0.33 0 0.66 0 1 C-0.78375 1.103125 -1.5675 1.20625 -2.375 1.3125 C-5.33045181 1.77595022 -5.33045181 1.77595022 -7 5 C-9.625 5.1875 -9.625 5.1875 -12 5 C-12.28875 5.886875 -12.5775 6.77375 -12.875 7.6875 C-14.27584804 11.81221922 -15.57756332 15.36634499 -18 19 C-18.66 19 -19.32 19 -20 19 C-19.21408579 12.90916489 -16.77763193 6.04443099 -12 2 C-7.61283342 -0.27482712 -4.8048246 -1.6016082 0 0 Z " fill="#456393" transform="translate(173,173)"/>
<path d="M0 0 C0.66 0.33 1.32 0.66 2 1 C2.86419223 3.59257669 3.17580932 5.34037707 3.31640625 8.01171875 C3.35830078 8.76904297 3.40019531 9.52636719 3.44335938 10.30664062 C3.48267578 11.09232422 3.52199219 11.87800781 3.5625 12.6875 C3.60568359 13.48478516 3.64886719 14.28207031 3.69335938 15.10351562 C3.79927368 17.06881447 3.90012551 19.03438496 4 21 C2.68 21.33 1.36 21.66 0 22 C-1.65554523 16.44905424 -2.1556463 12.7782315 -1 7 C-0.814375 5.700625 -0.62875 4.40125 -0.4375 3.0625 C-0.293125 2.051875 -0.14875 1.04125 0 0 Z " fill="#6E90BF" transform="translate(84,26)"/>
<path d="M0 0 C1.32 0 2.64 0 4 0 C4.33 0.66 4.66 1.32 5 2 C5.845625 1.95359375 6.69125 1.9071875 7.5625 1.859375 C14.96530419 1.62383123 19.69641861 2.04481168 26 6 C26 8.31 26 10.62 26 13 C25.34 13 24.68 13 24 13 C24 10.69 24 8.38 24 6 C17.28421494 5.35380762 10.70855883 4.88719422 3.9609375 5.16015625 C2 5 2 5 0 3 C0 2.01 0 1.02 0 0 Z " fill="#7D9ECF" transform="translate(112,0)"/>
<path d="M0 0 C0.33 0 0.66 0 1 0 C0.88562349 2.72998676 0.75888594 5.4584582 0.625 8.1875 C0.57859375 9.34088867 0.57859375 9.34088867 0.53125 10.51757812 C0.31383889 14.73897711 -0.09743072 18.14072328 -2 22 C-2.66 22 -3.32 22 -4 22 C-4.185625 22.556875 -4.37125 23.11375 -4.5625 23.6875 C-6.66360714 27.06754192 -9.70665994 28.85140381 -13 31 C-13 28 -13 28 -10.8125 25.6875 C-9.0109953 23.96606218 -7.17963313 22.27502462 -5.3125 20.625 C-1.7641785 16.42040587 -1.86091152 10.53010216 -1.359375 5.265625 C-1 2 -1 2 0 0 Z " fill="#8496B6" transform="translate(74,62)"/>
<path d="M0 0 C0.66 0 1.32 0 2 0 C2.2200085 4.87053298 1.41966189 9.19499992 0.1875 13.875 C0.00372803 14.58100342 -0.18004395 15.28700684 -0.36938477 16.0144043 C-3.84816493 29.14282041 -3.84816493 29.14282041 -7.6875 32 C-8.8321875 32.495 -8.8321875 32.495 -10 33 C-9.690625 32.4225 -9.38125 31.845 -9.0625 31.25 C-7.9327131 29.0661063 -7.9327131 29.0661063 -7.5 26.8125 C-7.335 26.214375 -7.17 25.61625 -7 25 C-6.34 24.67 -5.68 24.34 -5 24 C-4.14791573 21.0740051 -4.14791573 21.0740051 -3.5 17.5625 C-3.24605469 16.30308594 -2.99210937 15.04367188 -2.73046875 13.74609375 C-2.48941406 12.50988281 -2.24835938 11.27367188 -2 10 C-1.60443951 8.04161154 -1.2086492 6.08326946 -0.8125 4.125 C-0.54063511 2.75020359 -0.26935414 1.37529053 0 0 Z " fill="#628AB2" transform="translate(77,59)"/>
<path d="M0 0 C1.98 0 3.96 0 6 0 C6.09765625 6.15234375 6.09765625 6.15234375 6 8 C5 9 5 9 1.9375 9.0625 C0.968125 9.041875 -0.00125 9.02125 -1 9 C-1.80967438 6.08517222 -2.21845993 4.53886783 -1.0625 1.6875 C-0.711875 1.130625 -0.36125 0.57375 0 0 Z " fill="#6D89BB" transform="translate(43,32)"/>
<path d="M0 0 C4.93777852 -0.49377785 7.64349717 0.69190755 11.83203125 2.9765625 C15.39166157 4.65696456 19.14254376 5.32137344 23 6 C23.33 5.34 23.66 4.68 24 4 C23.125 7.875 23.125 7.875 22 9 C16.75811263 9.76710547 14.24294727 8.06831156 10.1015625 5.24609375 C6.86067173 3.32445034 3.67911946 2.72268418 0 2 C0 1.34 0 0.68 0 0 Z " fill="#6F88B7" transform="translate(103,43)"/>
<path d="M0 0 C3.69418201 1.231394 5.35109746 3.20791354 8 6 C6.9024777 8.99324263 6.32317108 9.84610901 3.375 11.25 C2.59125 11.4975 1.8075 11.745 1 12 C0.66666667 10.66666667 0.33333333 9.33333333 0 8 C-0.20625 7.34 -0.4125 6.68 -0.625 6 C-1.05725887 3.69461938 -0.71120955 2.21265195 0 0 Z " fill="#8E80A5" transform="translate(61,26)"/>
<path d="M0 0 C0.99 0.598125 1.98 1.19625 3 1.8125 C5.7077802 3.37319613 8.36950044 4.57585025 11.3125 5.625 C15 7 15 7 17 9 C19.31765729 9.71927295 21.65095874 10.3909893 24 11 C24 11.33 24 11.66 24 12 C19.05575834 12.35316012 16.32877603 11.30254044 12 9 C9.26427415 8.30092586 9.26427415 8.30092586 7 8 C7 7.34 7 6.68 7 6 C6.34 6 5.68 6 5 6 C5 5.34 5 4.68 5 4 C3.35 4 1.7 4 0 4 C0 2.68 0 1.36 0 0 Z " fill="#6382A8" transform="translate(0,86)"/>
<path d="M0 0 C0.66 0 1.32 0 2 0 C1.17558041 7.87404831 1.17558041 7.87404831 -1.48046875 10.41796875 C-5.09559927 12.50085852 -9.0018907 13.82982167 -13 15 C-12.46930939 18.82097239 -11.50298434 21.06171403 -9 24 C-11.84574968 22.72431911 -14.18089981 21.58503711 -16 19 C-15.9453125 16.58984375 -15.9453125 16.58984375 -15 14 C-12.34765625 12.3046875 -12.34765625 12.3046875 -9.0625 10.875 C-4.27805463 8.87380776 -4.27805463 8.87380776 -1 5 C-0.61500109 3.34450469 -0.27206865 1.6777567 0 0 Z " fill="#9FB6CD" transform="translate(96,0)"/>
<path d="M0 0 C3 2 3 2 3.6875 4.125 C3.8421875 5.053125 3.8421875 5.053125 4 6 C2.02 6.99 2.02 6.99 0 8 C-0.66 6.35 -1.32 4.7 -2 3 C-4.33075929 3.95865509 -4.33075929 3.95865509 -6 7 C-6.99 7 -7.98 7 -9 7 C-9 5.35 -9 3.7 -9 2 C-5.87350101 0.14725986 -3.62683775 -0.37198336 0 0 Z " fill="#5185A7" transform="translate(63,117)"/>
<path d="M0 0 C0.66 1.65 1.32 3.3 2 5 C5.34252724 5.07427838 7.8035914 5.06546953 11 4 C11 4.99 11 5.98 11 7 C-1.66970387 7.55353075 -1.66970387 7.55353075 -7 4 C-3.375 0 -3.375 0 0 0 Z " fill="#8E6F99" transform="translate(42,96)"/>
<path d="M0 0 C2.64 0.99 5.28 1.98 8 3 C5.54331454 6.94824449 3.79467996 9.15399003 0 12 C0 8.04 0 4.08 0 0 Z " fill="#9B7CA8" transform="translate(0,48)"/>
<path d="M0 0 C0.66 0 1.32 0 2 0 C1.88119823 6.05889028 1.88119823 6.05889028 -0.37890625 8.47265625 C-3.36282623 10.65552389 -6.37734658 12.21580463 -9.8125 13.5625 C-13.07764 14.69232082 -13.07764 14.69232082 -14.4375 17.1875 C-14.623125 17.785625 -14.80875 18.38375 -15 19 C-15.3125 16.6875 -15.3125 16.6875 -15 14 C-12.1809834 11.80743153 -9.50042844 10.64822749 -6 10 C-6 9.34 -6 8.68 -6 8 C-4.33333333 6.33333333 -2.66666667 4.66666667 -1 3 C-0.67 2.01 -0.34 1.02 0 0 Z " fill="#7DA6CE" transform="translate(94,0)"/>
<path d="M0 0 C0.33 1.32 0.66 2.64 1 4 C-0.07107117 4.86949317 -1.15745944 5.72014205 -2.25 6.5625 C-2.85328125 7.03816406 -3.4565625 7.51382813 -4.078125 8.00390625 C-6 9 -6 9 -8.234375 8.65234375 C-8.81703125 8.43707031 -9.3996875 8.22179688 -10 8 C-8.34524223 4.39846838 -6.91074922 2.7025523 -3.3125 1.1875 C-2.219375 0.795625 -1.12625 0.40375 0 0 Z " fill="#B5AFC3" transform="translate(12,39)"/>
<path d="M0 0 C0.99 0 1.98 0 3 0 C4.83435809 3.66871618 4.37336838 8.25273709 4.51757812 12.32226562 C4.60890568 14.21946625 4.79713434 16.11146711 5 18 C5.66 18.33 6.32 18.66 7 19 C6.34 19.66 5.68 20.32 5 21 C4.01 21 3.02 21 2 21 C1.97494385 20.43490723 1.9498877 19.86981445 1.92407227 19.28759766 C1.80820044 16.73316258 1.68543463 14.1791045 1.5625 11.625 C1.52318359 10.73554687 1.48386719 9.84609375 1.44335938 8.9296875 C1.38051758 7.65351563 1.38051758 7.65351563 1.31640625 6.3515625 C1.27974854 5.56604004 1.24309082 4.78051758 1.20532227 3.97119141 C1.109109 1.92476504 1.109109 1.92476504 0 0 Z " fill="#A79DC3" transform="translate(85,24)"/>
<path d="M0 0 C0 3 0 3 -1.375 5.125 C-3.524114 8.92727862 -4.21055471 12.73699542 -5 17 C-6.32 17.33 -7.64 17.66 -9 18 C-8.33333333 15.33333333 -7.66666667 12.66666667 -7 10 C-6.87625 9.319375 -6.7525 8.63875 -6.625 7.9375 C-5.85410107 5.54771333 -4.75984928 4.45602911 -2.9375 2.75 C-2.38964844 2.22921875 -1.84179688 1.7084375 -1.27734375 1.171875 C-0.85582031 0.78515625 -0.43429688 0.3984375 0 0 Z " fill="#767C9D" transform="translate(69,86)"/>
<path d="M0 0 C-0.33 0.66 -0.66 1.32 -1 2 C-1.57967529 1.99476318 -2.15935059 1.98952637 -2.7565918 1.98413086 C-5.4002167 1.96325666 -8.04382421 1.95030673 -10.6875 1.9375 C-11.59951172 1.92912109 -12.51152344 1.92074219 -13.45117188 1.91210938 C-14.78051758 1.90727539 -14.78051758 1.90727539 -16.13671875 1.90234375 C-16.94842529 1.89710693 -17.76013184 1.89187012 -18.59643555 1.88647461 C-21.14864673 2.0070209 -23.51026137 2.440051 -26 3 C-25.67 2.34 -25.34 1.68 -25 1 C-16.52304486 -1.72473558 -8.71205236 -1.26720762 0 0 Z " fill="#7E93BD" transform="translate(31,33)"/>
<path d="M0 0 C1.32 1.32 2.64 2.64 4 4 C2.02 4 0.04 4 -2 4 C-2.99 6.97 -3.98 9.94 -5 13 C-5.99 12.34 -6.98 11.68 -8 11 C-7.47043997 7.18716777 -6.63927191 4.83477353 -4 2 C-1.8125 0.75 -1.8125 0.75 0 0 Z " fill="#6D9DC6" transform="translate(66,40)"/>
<path d="M0 0 C-0.125 2.3125 -0.125 2.3125 -1 5 C-4.71662762 7.44959548 -7.56366125 8.39144165 -12 8 C-4.21621622 0 -4.21621622 0 0 0 Z " fill="#99769E" transform="translate(101,39)"/>
<path d="M0 0 C0 0.33 0 0.66 0 1 C-1.65 1 -3.3 1 -5 1 C-5.33 1.99 -5.66 2.98 -6 4 C-6.49113281 4.46019531 -6.98226562 4.92039063 -7.48828125 5.39453125 C-9.39877382 7.42350398 -9.67575714 8.97132638 -10.1875 11.6875 C-10.42533203 12.89986328 -10.42533203 12.89986328 -10.66796875 14.13671875 C-10.77753906 14.75160156 -10.88710938 15.36648437 -11 16 C-13.1154512 12.20198915 -13.1299521 10.25905023 -12 6 C-10.625 3.1875 -10.625 3.1875 -9 1 C-5.8035914 -0.06546953 -3.34252724 -0.07427838 0 0 Z " fill="#54719D" transform="translate(49,125)"/>
<path d="M0 0 C0.33 0 0.66 0 1 0 C1 1.65 1 3.3 1 5 C1.66 5 2.32 5 3 5 C4.625 7 4.625 7 6 9 C6.33 6.36 6.66 3.72 7 1 C7.33 1 7.66 1 8 1 C8 4.63 8 8.26 8 12 C6.35 12 4.7 12 3 12 C2.71125 11.195625 2.4225 10.39125 2.125 9.5625 C1.26737432 6.8673532 1.26737432 6.8673532 -1 6 C-1.042721 4.33388095 -1.04063832 2.66617115 -1 1 C-0.67 0.67 -0.34 0.34 0 0 Z " fill="#52ABBE" transform="translate(62,47)"/>
<path d="M0 0 C1.32 0 2.64 0 4 0 C1.03074518 10.32490881 1.03074518 10.32490881 -3 14 C-5.75 14.3125 -5.75 14.3125 -8 14 C-6.8553125 13.319375 -6.8553125 13.319375 -5.6875 12.625 C-1.93576128 8.96051102 -1.17523203 5.00667954 0 0 Z " fill="#CDCDD6" transform="translate(98,0)"/>
<path d="M0 0 C2.29013653 3.4352048 2.17842973 4.985331 2 9 C2.99 9.33 3.98 9.66 5 10 C6.95216435 11.95216435 7.84826645 13.53199953 9 16 C5.54418991 14.75206858 2.65943762 13.56928719 0 11 C-0.390625 8.30078125 -0.390625 8.30078125 -0.25 5.3125 C-0.21390625 4.31863281 -0.1778125 3.32476562 -0.140625 2.30078125 C-0.09421875 1.54152344 -0.0478125 0.78226562 0 0 Z " fill="#808CA7" transform="translate(0,75)"/>
<path d="M0 0 C0.66 0 1.32 0 2 0 C3.0891728 2.1783456 3.28032356 3.7203964 3.53515625 6.1328125 C3.62216797 6.93847656 3.70917969 7.74414062 3.79882812 8.57421875 C3.88583984 9.41597656 3.97285156 10.25773437 4.0625 11.125 C4.15337891 11.97449219 4.24425781 12.82398438 4.33789062 13.69921875 C4.5620368 15.7991145 4.78146448 17.89951293 5 20 C4.01 19.67 3.02 19.34 2 19 C1.34 12.73 0.68 6.46 0 0 Z " fill="#A0A8C4" transform="translate(119,25)"/>
<path d="M0 0 C0.66 0 1.32 0 2 0 C1.25 2.875 1.25 2.875 0 6 C-1.32520503 6.68268138 -2.65812182 7.3507041 -4 8 C-4.81171228 10.55519921 -4.81171228 10.55519921 -5 13 C-5.99 12.67 -6.98 12.34 -8 12 C-8.99 12.495 -8.99 12.495 -10 13 C-8.4373676 9.16444775 -5.93550032 6.86390275 -3 4 C-2.443125 3.236875 -1.88625 2.47375 -1.3125 1.6875 C-0.6628125 0.8521875 -0.6628125 0.8521875 0 0 Z " fill="#9293C0" transform="translate(62,38)"/>
<path d="M0 0 C0.99 0 1.98 0 3 0 C3.125 3.375 3.125 3.375 3 7 C2.34 7.66 1.68 8.32 1 9 C0.53709779 11.66242821 0.53709779 11.66242821 0.375 14.625 C0.30023438 15.62789062 0.22546875 16.63078125 0.1484375 17.6640625 C0.09945312 18.43492188 0.05046875 19.20578125 0 20 C-2 18 -2 18 -2.25 14.1875 C-2.17449077 10.70149072 -1.38755337 8.20871718 0 5 C0.16798262 2.29113059 0.16798262 2.29113059 0 0 Z " fill="#C19AC4" transform="translate(117,8)"/>
<path d="M0 0 C0.66 0.33 1.32 0.66 2 1 C0.47142825 2.63732389 -1.07347985 4.25940527 -2.625 5.875 C-3.91277344 7.23238281 -3.91277344 7.23238281 -5.2265625 8.6171875 C-8.12219079 11.10498082 -10.33353252 12.06456695 -14 13 C-14 12.34 -14 11.68 -14 11 C-14.66 10.34 -15.32 9.68 -16 9 C-14.783125 8.95875 -13.56625 8.9175 -12.3125 8.875 C-8.86385353 8.466768 -7.35046145 7.78942379 -5.1875 5.0625 C-4.1046875 3.5465625 -4.1046875 3.5465625 -3 2 C-2.01 1.34 -1.02 0.68 0 0 Z " fill="#9E8CB5" transform="translate(40,26)"/>
<path d="M0 0 C0 0.66 0 1.32 0 2 C0.66 2 1.32 2 2 2 C2 2.66 2 3.32 2 4 C0.68 4.33 -0.64 4.66 -2 5 C-2 3.68 -2 2.36 -2 1 C-6.34170523 3.3836813 -10.2064129 5.78119883 -14 9 C-14.33 8.34 -14.66 7.68 -15 7 C-5.77448747 -1.03644647 -5.77448747 -1.03644647 0 0 Z " fill="#A783AC" transform="translate(103,38)"/>
<path d="M0 0 C4 4 4 4 4.2421875 6.2890625 C4.12101562 7.05992188 3.99984375 7.83078125 3.875 8.625 C3.76929687 9.40101562 3.66359375 10.17703125 3.5546875 10.9765625 C3 13 3 13 1 15 C0.67 10.05 0.34 5.1 0 0 Z " fill="#C0A9C8" transform="translate(88,24)"/>
<path d="M0 0 C0.33 0 0.66 0 1 0 C1.33 5.61 1.66 11.22 2 17 C1.01 17 0.02 17 -1 17 C-1.02709444 14.91673869 -1.04643873 12.83337559 -1.0625 10.75 C-1.07410156 9.58984375 -1.08570312 8.4296875 -1.09765625 7.234375 C-1.01782092 4.59022872 -0.78643778 2.50173909 0 0 Z " fill="#8D94BF" transform="translate(86,30)"/>
<path d="M0 0 C0.33 0 0.66 0 1 0 C1.25 2.26171875 1.25 2.26171875 1 5 C-0.75 7.01953125 -0.75 7.01953125 -3 8.8125 C-3.7425 9.41707031 -4.485 10.02164063 -5.25 10.64453125 C-5.8275 11.09183594 -6.405 11.53914063 -7 12 C-7.66 11.34 -8.32 10.68 -9 10 C-8.2575 9.278125 -7.515 8.55625 -6.75 7.8125 C-3.98986741 5.08271502 -3.98986741 5.08271502 -1.75 2.1875 C-1.1725 1.465625 -0.595 0.74375 0 0 Z " fill="#8E8BA4" transform="translate(69,81)"/>
<path d="M0 0 C1.28071437 3.8421431 0.477917 5.47447977 -0.96484375 9.125 C-2.42681871 11.77310558 -4.26907273 12.81905848 -7 14 C-6.690625 13.4225 -6.38125 12.845 -6.0625 12.25 C-4.9327131 10.0661063 -4.9327131 10.0661063 -4.5 7.8125 C-4.2525 6.9153125 -4.2525 6.9153125 -4 6 C-3.34 5.67 -2.68 5.34 -2 5 C-1.27840576 3.35636866 -0.60648579 1.68949614 0 0 Z " fill="#6082A9" transform="translate(74,78)"/>
<path d="M0 0 C0.66 0.33 1.32 0.66 2 1 C-3.0022779 8.66742597 -3.0022779 8.66742597 -7 10 C-6.84518205 7.29068581 -6.51827919 5.53415961 -4.59765625 3.5546875 C-3.10228292 2.32320358 -1.5537076 1.1570163 0 0 Z " fill="#5F7599" transform="translate(168,176)"/>
<path d="M0 0 C0 0.99 0 1.98 0 3 C-1 4 -1 4 -2.890625 4.1328125 C-7.0540674 4.11902627 -10.93925029 4.04793541 -15 3 C-15 2.67 -15 2.34 -15 2 C-14.16855469 1.93941406 -13.33710937 1.87882812 -12.48046875 1.81640625 C-10.85044922 1.69072266 -10.85044922 1.69072266 -9.1875 1.5625 C-8.10855469 1.48128906 -7.02960937 1.40007812 -5.91796875 1.31640625 C-2.94010095 1.09787539 -2.94010095 1.09787539 0 0 Z " fill="#6A6D96" transform="translate(62,103)"/>
<path d="M0 0 C1.98 0 3.96 0 6 0 C6.66 1.32 7.32 2.64 8 4 C6.02 4.99 6.02 4.99 4 6 C2.68 4.02 1.36 2.04 0 0 Z " fill="#B4A6D0" transform="translate(124,6)"/>
<path d="M0 0 C0.33 0 0.66 0 1 0 C0.88658363 2.31309705 0.75896193 4.62550185 0.625 6.9375 C0.52058594 8.86916016 0.52058594 8.86916016 0.4140625 10.83984375 C0.27742188 11.88269531 0.14078125 12.92554687 0 14 C-0.99 14.495 -0.99 14.495 -2 15 C-3.23922223 11.28233332 -2.57018942 9.56110463 -1.5625 5.8125 C-1.13130859 4.18248047 -1.13130859 4.18248047 -0.69140625 2.51953125 C-0.46324219 1.68808594 -0.23507813 0.85664062 0 0 Z " fill="#979CB5" transform="translate(72,65)"/>
<path d="M0 0 C0.99 0.33 1.98 0.66 3 1 C3 1.66 3 2.32 3 3 C1.9275 3.598125 0.855 4.19625 -0.25 4.8125 C-2.98958993 6.37401069 -5.53256878 8.02605503 -8 10 C-6.34908222 5.70761377 -3.26245434 3.1206085 0 0 Z " fill="#AA84B0" transform="translate(43,25)"/>
<path d="M0 0 C3 1 3 1 4 3 C6.02600175 3.22511131 8.05459276 3.4440878 10.08984375 3.55859375 C12 4 12 4 14 7 C9.35242246 7.42250705 6.09339402 6.16254779 2 4 C0.5625 1.8125 0.5625 1.8125 0 0 Z " fill="#B189AC" transform="translate(26,43)"/>
<path d="M0 0 C0.66 0.33 1.32 0.66 2 1 C2 2.98 2 4.96 2 7 C2.99 6.67 3.98 6.34 5 6 C5 6.66 5 7.32 5 8 C3.34385343 8.38218767 1.67542976 8.71395102 0 9 C-1 8 -1 8 -1.125 5.0625 C-1 2 -1 2 0 0 Z " fill="#468BAB" transform="translate(62,125)"/>
<path d="M0 0 C3.63 0 7.26 0 11 0 C11.33 0.99 11.66 1.98 12 3 C10.56163249 2.88541307 9.12429034 2.75790884 7.6875 2.625 C6.88699219 2.55539063 6.08648437 2.48578125 5.26171875 2.4140625 C3 2 3 2 0 0 Z " fill="#827DA0" transform="translate(24,98)"/>
<path d="M0 0 C0.99 0.66 1.98 1.32 3 2 C2.04956626 3.33897583 1.08940853 4.67105427 0.125 6 C-0.40867188 6.7425 -0.94234375 7.485 -1.4921875 8.25 C-1.98976562 8.8275 -2.48734375 9.405 -3 10 C-3.66 10 -4.32 10 -5 10 C-4.1875 7.5625 -4.1875 7.5625 -3 5 C-2.01 4.67 -1.02 4.34 0 4 C0 2.68 0 1.36 0 0 Z " fill="#719CCB" transform="translate(138,9)"/>
<path d="M0 0 C0.99 0.33 1.98 0.66 3 1 C1.6875 4.4375 1.6875 4.4375 0 8 C-0.99 8.33 -1.98 8.66 -3 9 C-3.26218749 5.85375007 -3.24754367 4.38162983 -1.5 1.6875 C-1.005 1.130625 -0.51 0.57375 0 0 Z " fill="#576698" transform="translate(161,178)"/>
<path d="M0 0 C1.65 0 3.3 0 5 0 C5.33 1.32 5.66 2.64 6 4 C4.02 4.99 4.02 4.99 2 6 C1.34 4.02 0.68 2.04 0 0 Z " fill="#5C7BA8" transform="translate(61,119)"/>
<path d="M0 0 C2.84550012 0.66010476 5.52325999 1.51724966 8.25 2.5625 C8.95640625 2.83191406 9.6628125 3.10132812 10.390625 3.37890625 C10.92171875 3.58386719 11.4528125 3.78882812 12 4 C12 4.33 12 4.66 12 5 C7.12335991 5.34833144 4.22949995 4.41685712 0 2 C0 1.34 0 0.68 0 0 Z " fill="#6E80A4" transform="translate(12,93)"/>
<path d="M0 0 C1.66611905 -0.042721 3.33382885 -0.04063832 5 0 C6 1 6 1 6.0625 4.0625 C6.041875 5.031875 6.02125 6.00125 6 7 C5.01 7.495 5.01 7.495 4 8 C4 6.02 4 4.04 4 2 C2.35 2 0.7 2 -1 2 C-0.67 1.34 -0.34 0.68 0 0 Z " fill="#8488BE" transform="translate(45,30)"/>
<path d="M0 0 C5.35152885 0.32433508 8.28280043 3.49704824 12 7 C11.67 7.66 11.34 8.32 11 9 C9 7.625 9 7.625 7 6 C7 5.34 7 4.68 7 4 C6.21625 3.71125 5.4325 3.4225 4.625 3.125 C2 2 2 2 0 0 Z " fill="#7E84B4" transform="translate(57,23)"/>
<path d="M0 0 C0.99 0 1.98 0 3 0 C3.66 1.65 4.32 3.3 5 5 C0.25 4.25 0.25 4.25 -2 2 C-1.34 1.34 -0.68 0.68 0 0 Z " fill="#9C7998" transform="translate(39,96)"/>
<path d="M0 0 C0.66 0.33 1.32 0.66 2 1 C1.62671065 6.35048061 0.0042343 8.50912907 -4 12 C-4 9 -4 9 -2.5625 7.125 C-0.7989601 4.72658573 -0.40521854 2.91757352 0 0 Z " fill="#9484BB" transform="translate(51,32)"/>
<path d="M0 0 C0.66 0 1.32 0 2 0 C2.45375 0.763125 2.9075 1.52625 3.375 2.3125 C5.00525469 5.00869044 6.39735892 6.29482136 9 8 C6.1875 7.8125 6.1875 7.8125 3 7 C1.14766715 4.59196729 0 3.07258075 0 0 Z " fill="#BEA2CA" transform="translate(108,0)"/>
<path d="M0 0 C0 3 0 3 -2.125 5.1875 C-5.41557542 7.2619932 -7.18634321 7.35475877 -11 7 C-11 6.67 -11 6.34 -11 6 C-9.6696875 5.62875 -9.6696875 5.62875 -8.3125 5.25 C-4.89572865 3.96065232 -2.7202252 2.40019871 0 0 Z " fill="#4C6A9B" transform="translate(70,147)"/>
<path d="M0 0 C3.68014125 0.70771947 6.76166418 2.12896153 10 4 C10.33 4.99 10.66 5.98 11 7 C7.9168649 5.80100302 4.93720508 4.52299523 2 3 C2 2.34 2 1.68 2 1 C1.34 0.67 0.68 0.34 0 0 Z " fill="#9491BB" transform="translate(103,39)"/>
<path d="M0 0 C0.66 0.33 1.32 0.66 2 1 C1.05125 1.7425 0.1025 2.485 -0.875 3.25 C-3.32532401 5.27845219 -4.87325363 6.9577848 -6 10 C-6 7.69 -6 5.38 -6 3 C-4.03533587 1.93224776 -2.03144641 0.93446535 0 0 Z " fill="#A394BC" transform="translate(6,38)"/>
<path d="M0 0 C0.99 0.33 1.98 0.66 3 1 C3.6875 3.0625 3.6875 3.0625 4 5 C5.32 5.33 6.64 5.66 8 6 C8 6.66 8 7.32 8 8 C6.35 7.67 4.7 7.34 3 7 C2.67 5.68 2.34 4.36 2 3 C1.34 3 0.68 3 0 3 C0 2.01 0 1.02 0 0 Z " fill="#6AA9B9" transform="translate(61,53)"/>
<path d="M0 0 C2.00948183 0.01778303 4.01668765 0.16786374 6.01953125 0.33203125 C6.01953125 0.66203125 6.01953125 0.99203125 6.01953125 1.33203125 C4.68921875 1.76515625 4.68921875 1.76515625 3.33203125 2.20703125 C0.51570701 3.16351873 -2.23130031 4.20002071 -4.98046875 5.33203125 C-3.05235036 0.51173527 -3.05235036 0.51173527 0 0 Z " fill="#BF93B9" transform="translate(95.98046875,36.66796875)"/>
<path d="M0 0 C1.0326802 2.78823655 1.04509293 3.8677274 0.0625 6.75 C-0.288125 7.4925 -0.63875 8.235 -1 9 C-1.66 9 -2.32 9 -3 9 C-2.44271087 5.65626525 -1.64826111 2.96687001 0 0 Z " fill="#788EAE" transform="translate(73,75)"/>
<path d="M0 0 C0.33 1.32 0.66 2.64 1 4 C-1.97 6.475 -1.97 6.475 -5 9 C-4.42647107 5.12867972 -2.51295648 2.91827204 0 0 Z " fill="#A77A9C" transform="translate(5,51)"/>
<path d="M0 0 C1.32 0 2.64 0 4 0 C3.34 1.32 2.68 2.64 2 4 C1.34 4 0.68 4 0 4 C-0.33 4.99 -0.66 5.98 -1 7 C-0.67 4.69 -0.34 2.38 0 0 Z " fill="#C5C9DB" transform="translate(98,0)"/>
</svg>
