<svg width="106" height="31" viewBox="0 0 106 31" fill="none" xmlns="http://www.w3.org/2000/svg">
<rect width="106" height="31" rx="15.5" fill="white" fill-opacity="0.65"/>
<rect x="6" y="5.5" width="20" height="20" rx="10" fill="#FEE500"/>
<g clip-path="url(#clip0_739_3903)">
<path fill-rule="evenodd" clip-rule="evenodd" d="M15.9999 10.0557C12.778 10.0557 10.1665 12.0733 10.1665 14.5618C10.1665 16.1094 11.1766 17.4737 12.7147 18.2852L12.0675 20.6494C12.0104 20.8583 12.2493 21.0248 12.4327 20.9037L15.2696 19.0314C15.509 19.0545 15.7523 19.068 15.9999 19.068C19.2215 19.068 21.8332 17.0504 21.8332 14.5618C21.8332 12.0733 19.2215 10.0557 15.9999 10.0557Z" fill="black"/>
</g>
<path d="M46.0791 18.5371V19.6035H34.8682V18.5371H39.7764V15.625H41.0615V18.5371H46.0791ZM41.0889 10.6211C41.0889 12.5625 43.2217 14.3809 45.5869 14.7773L45.0264 15.8438C43.0439 15.4473 41.2188 14.2236 40.4053 12.5352C39.5986 14.2168 37.7939 15.4609 35.8252 15.8438L35.251 14.7773C37.6025 14.3809 39.7217 12.5625 39.7217 10.6211V9.69141H41.0889V10.6211ZM56.8307 8.91211V15.3242H55.5318V13.2734H53.235V12.248H55.5318V11.0859H53.235V10.0742H55.5318V8.91211H56.8307ZM56.8307 15.8574V18.8652H50.1178V19.9863H57.2545V21.0117H48.8463V17.9082H55.5455V16.8828H48.8189V15.8574H56.8307ZM50.9244 10.457C50.9244 12.043 52.0455 13.5605 53.8912 14.1758L53.2076 15.1738C51.8404 14.6885 50.815 13.6973 50.2955 12.4531C49.7555 13.793 48.6959 14.8662 47.274 15.3789L46.5904 14.3672C48.4771 13.7383 49.6256 12.1387 49.6393 10.457V9.22656H50.9244V10.457ZM72.6463 18.6055V19.6992H61.4354V18.6055H66.3709V16.459H62.8025V12.5625H69.9939V10.8398H62.7752V9.77344H71.2791V13.6016H64.0877V15.3926H71.5662V16.459H67.6561V18.6055H72.6463ZM82.892 10.1562V11.4688C82.892 13.0547 82.892 14.7773 82.4408 17.3887L81.1146 17.2656C81.6068 14.8184 81.6068 13.0137 81.6068 11.4688V11.2227H74.3881V10.1562H82.892ZM84.3549 18.3457V19.4258H73.185V18.3457H84.3549ZM95.0928 8.92578V17.8262H93.7939V8.92578H95.0928ZM95.4619 19.8496V20.9023H87.0811V16.9238H88.3936V19.8496H95.4619ZM88.4482 9.74609C90.2939 9.74609 91.7021 11.0039 91.7021 12.7812C91.7021 14.5859 90.2939 15.8301 88.4482 15.8301C86.6025 15.8301 85.1807 14.5859 85.1807 12.7812C85.1807 11.0039 86.6025 9.74609 88.4482 9.74609ZM88.4482 10.8809C87.2998 10.8809 86.4521 11.6602 86.4521 12.7812C86.4521 13.9297 87.2998 14.6953 88.4482 14.6953C89.5693 14.6953 90.4307 13.9297 90.4307 12.7812C90.4307 11.6602 89.5693 10.8809 88.4482 10.8809Z" fill="black"/>
<defs>
<clipPath id="clip0_739_3903">
<rect width="11.6667" height="11.6667" fill="white" transform="translate(10.1665 9.66675)"/>
</clipPath>
</defs>
</svg>
