<svg width="40" height="40" viewBox="0 0 40 40" fill="none" xmlns="http://www.w3.org/2000/svg">
<rect width="40" height="40" rx="20" fill="#376FA3"/>
<path fill-rule="evenodd" clip-rule="evenodd" d="M11.3067 22.3292C10.8148 20.4933 10.9167 18.5488 11.5978 16.7745C12.2789 15.0001 13.5043 13.4869 15.0983 12.4517C16.6923 11.4166 18.573 10.9126 20.4711 11.0121C21.9681 11.0906 23.4152 11.5412 24.6846 12.315L22.9998 13.9998H23.7141H27.9998V8.99977L26.1321 10.8675C24.4865 9.76255 22.5673 9.11921 20.5757 9.01484C18.2559 8.89326 15.9572 9.5092 14.009 10.7744C12.0608 12.0396 10.5631 13.889 9.73062 16.0577C8.89814 18.2264 8.77359 20.603 9.37482 22.8468L11.3067 22.3292ZM28.6931 17.6708C29.185 19.5067 29.0831 21.4512 28.402 23.2255C27.7208 24.9999 26.4955 26.5131 24.9015 27.5483C23.3075 28.5834 21.4267 29.0874 19.5287 28.9879C18.0315 28.9094 16.5843 28.4587 15.3148 27.6848L16.9998 25.9998H16.2856H11.9998V30.9998L13.8673 29.1323C15.5129 30.2374 17.4323 30.8808 19.424 30.9852C21.7438 31.1067 24.0425 30.4908 25.9907 29.2256C27.939 27.9604 29.4366 26.111 30.2691 23.9423C31.1016 21.7736 31.2261 19.397 30.6249 17.1532L28.6931 17.6708Z" fill="white"/>
</svg>
