<svg width="75" height="36" viewBox="0 0 75 36" fill="none" xmlns="http://www.w3.org/2000/svg">
<path d="M5 18L8.88235 22L16 14" stroke="black" stroke-linecap="round"/>
<path d="M34.6641 11.9258V20.8945H33.3652V16.2871H31.0273V15.2344H33.3652V11.9258H34.6641ZM34.9922 22.8496V23.9023H26.707V20.0879H28.0059V22.8496H34.9922ZM28.8398 14.4004C28.8398 15.9316 29.9473 17.4629 31.793 18.0781L31.123 19.1172C29.749 18.6318 28.7305 17.6475 28.1973 16.4375C27.6641 17.7842 26.5908 18.8711 25.1348 19.3906L24.4648 18.3379C26.3516 17.6953 27.5137 16.082 27.5137 14.4004V13.9219H24.8613V12.8555H31.4648V13.9219H28.8398V14.4004ZM39.8648 15.6719C39.8648 17.5996 40.7535 19.5684 42.4488 20.4707L41.7242 21.4277C40.5416 20.7988 39.7145 19.623 39.277 18.2285C38.8326 19.7256 38.0123 21.0107 36.8297 21.7148L36.0641 20.7305C37.7594 19.7461 38.6344 17.6543 38.648 15.6719V15.1797H36.4332V14.1133H38.648V12.3496H39.8648V14.1133H42.0387V15.1797H39.8648V15.6719ZM46.7145 11.9121V24.1621H45.4703V11.9121H46.7145ZM44.2262 12.1719V23.5469H42.9957V17.7637H41.232V16.6836H42.9957V12.1719H44.2262ZM55.3387 14.1543C55.3387 15.8086 56.4461 17.4219 58.2918 18.0645L57.5809 19.0762C56.241 18.5635 55.243 17.5518 54.7234 16.2734C54.1902 17.6953 53.1443 18.8164 51.702 19.3633L51.0047 18.3379C52.9051 17.6543 54.0398 15.959 54.0535 14.1133V12.6641H55.3387V14.1543ZM61.2313 11.9258V21.0586H59.9324V15.7812H57.3484V14.7148H59.9324V11.9258H61.2313ZM61.5047 22.8496V23.9023H53.2332V20.0332H54.5457V22.8496H61.5047ZM68.059 12.7871V13.8398H64.518V15.207H67.9223V16.2051H64.518V17.6953C66.1586 17.6816 67.2387 17.6201 68.4965 17.3809L68.6195 18.4473C67.184 18.7207 66.0219 18.7754 64.0668 18.7617H63.2738V12.7871H68.059ZM73.2133 11.9258V19.3633H71.9828V16.0957H70.4789V19.2676H69.2621V12.1445H70.4789V15.043H71.9828V11.9258H73.2133ZM73.2133 19.9512V24.1621H71.9281V21.0039H64.8871V19.9512H73.2133Z" fill="black"/>
</svg>
