<svg width="24" height="24" viewBox="0 0 24 24" fill="none" xmlns="http://www.w3.org/2000/svg">
<mask id="path-1-inside-1_331_12255" fill="white">
<path d="M4 17.5C4 15.567 5.567 14 7.5 14H16.5C18.433 14 20 15.567 20 17.5V20H4V17.5Z"/>
</mask>
<path d="M3 17.5C3 15.0147 5.01472 13 7.5 13H16.5C18.9853 13 21 15.0147 21 17.5H19C19 16.1193 17.8807 15 16.5 15H7.5C6.11929 15 5 16.1193 5 17.5H3ZM20 20H4H20ZM3 20V17.5C3 15.0147 5.01472 13 7.5 13V15C6.11929 15 5 16.1193 5 17.5V20H3ZM16.5 13C18.9853 13 21 15.0147 21 17.5V20H19V17.5C19 16.1193 17.8807 15 16.5 15V13Z" fill="#666666" mask="url(#path-1-inside-1_331_12255)"/>
<circle cx="12" cy="8" r="3.5" stroke="#666666"/>
</svg>
