<svg width="40" height="40" viewBox="0 0 40 40" fill="none" xmlns="http://www.w3.org/2000/svg">
<rect width="40" height="40" rx="20" fill="#EBEBEB"/>
<path d="M15.7559 10.8516V14.9336H11.6641V10.8516H15.7559ZM12.5723 11.6035V14.2012H14.8477V11.6035H12.5723ZM18.1973 10.0703V12.6875H19.4668V13.4688H18.1973V16.4863H17.2695V10.0703H18.1973ZM18.5684 17.8926V18.6445H12.6504V15.8711H13.5781V17.8926H18.5684ZM26.5898 10.0801V11.8379H27.8594V12.6191H26.5898V14.4648H25.6621V10.0801H26.5898ZM21.043 10.4707V13.3223C22.2197 13.3125 23.46 13.2197 24.8027 12.9512L24.9199 13.7227C23.4453 14.0156 22.1172 14.1035 20.8281 14.1035H20.1152V10.4707H21.043ZM26.5898 14.8652V17.0918H21.873V17.9707H26.8926V18.7227H20.9551V16.3789H25.6621V15.5977H20.9355V14.8652H26.5898ZM14.3789 23.6914C14.3789 24.8047 15.1504 25.8203 16.4785 26.2402L16.0391 26.9629C15.043 26.6455 14.3154 25.9863 13.9297 25.1562C13.5488 26.1133 12.7822 26.8701 11.7324 27.2363L11.2539 26.4941C12.6211 26.0449 13.4414 24.9121 13.4512 23.7012V23.457H11.5273V22.7051H16.2637V23.457H14.3789V23.6914ZM18.1973 22.0801V24.248H19.4668V25.0098H18.1973V27.334H17.2695V22.0801H18.1973ZM15.375 27.5488C17.1816 27.5488 18.2754 28.1445 18.2754 29.1699C18.2754 30.2051 17.1816 30.8203 15.375 30.8105C13.5488 30.8203 12.4355 30.2051 12.4355 29.1699C12.4355 28.1445 13.5488 27.5488 15.375 27.5488ZM15.375 28.2812C14.1055 28.2812 13.3535 28.6035 13.3633 29.1699C13.3535 29.7559 14.1055 30.0781 15.375 30.0781C16.6348 30.0781 17.3672 29.7559 17.3672 29.1699C17.3672 28.6035 16.6348 28.2812 15.375 28.2812ZM27.7227 28.9551V29.7168H19.7148V28.9551H23.2207V26.875H24.1387V28.9551H27.7227ZM24.1582 23.3008C24.1582 24.6875 25.6816 25.9863 27.3711 26.2695L26.9707 27.0312C25.5547 26.748 24.251 25.874 23.6699 24.668C23.0938 25.8691 21.8047 26.7578 20.3984 27.0312L19.9883 26.2695C21.668 25.9863 23.1816 24.6875 23.1816 23.3008V22.6367H24.1582V23.3008Z" fill="#666666"/>
</svg>
