<svg width="24" height="24" viewBox="0 0 24 24" fill="none" xmlns="http://www.w3.org/2000/svg">
<path fill-rule="evenodd" clip-rule="evenodd" d="M10.5 4.5V5.50013H13.5V4.5H14.5V5.50013H17C18.1046 5.50013 19 6.39556 19 7.50013V10.4685V11.4685V17.4685V17.5002C19 18.6048 18.1046 19.5002 17 19.5002H7C5.89543 19.5002 5 18.6048 5 17.5002V17.4685V11.4685V10.4685V7.50013C5 6.39556 5.89543 5.50013 7 5.50013H9.5V4.5H10.5ZM13.5 6.50013V7.50626H14.5V6.50013H17C17.5523 6.50013 18 6.94785 18 7.50013V10.4685H6V7.50013C6 6.94785 6.44772 6.50013 7 6.50013H9.5V7.50626H10.5V6.50013H13.5ZM6 11.4685V17.4685C6 18.0208 6.44772 18.4685 7 18.4685H17C17.5523 18.4685 18 18.0208 18 17.4685V11.4685H6Z" fill="#666666"/>
</svg>
