<svg width="40" height="40" viewBox="0 0 40 40" fill="none" xmlns="http://www.w3.org/2000/svg">
<rect width="40" height="40" rx="20" fill="#EBEBEB"/>
<path d="M13.5547 16.4297C13.5547 17.7656 14.4805 18.9844 16.0742 19.4883L15.5469 20.3555C14.3516 19.9746 13.4785 19.1836 13.0156 18.1875C12.5586 19.3359 11.6387 20.2441 10.3789 20.6836L9.80469 19.793C11.4453 19.2539 12.4297 17.8945 12.4414 16.4414V16.1484H10.1328V15.2461H15.8164V16.1484H13.5547V16.4297ZM18.1367 14.4961V17.0977H19.6602V18.0117H18.1367V20.8008H17.0234V14.4961H18.1367ZM14.75 21.0586C16.918 21.0586 18.2305 21.7734 18.2305 23.0039C18.2305 24.2461 16.918 24.9844 14.75 24.9727C12.5586 24.9844 11.2227 24.2461 11.2227 23.0039C11.2227 21.7734 12.5586 21.0586 14.75 21.0586ZM14.75 21.9375C13.2266 21.9375 12.3242 22.3242 12.3359 23.0039C12.3242 23.707 13.2266 24.0938 14.75 24.0938C16.2617 24.0938 17.1406 23.707 17.1406 23.0039C17.1406 22.3242 16.2617 21.9375 14.75 21.9375ZM29.5672 22.7461V23.6602H19.9578V22.7461H24.1648V20.25H25.2664V22.7461H29.5672ZM25.2898 15.9609C25.2898 17.625 27.118 19.1836 29.1453 19.5234L28.6648 20.4375C26.9656 20.0977 25.4012 19.0488 24.7039 17.6016C24.0125 19.043 22.4656 20.1094 20.7781 20.4375L20.2859 19.5234C22.3016 19.1836 24.118 17.625 24.118 15.9609V15.1641H25.2898V15.9609Z" fill="#666666"/>
</svg>
