<svg width="19" height="18" viewBox="0 0 19 18" fill="none" xmlns="http://www.w3.org/2000/svg">
<mask id="mask0_107_2927" style="mask-type:luminance" maskUnits="userSpaceOnUse" x="0" y="0" width="19" height="18">
<path d="M18.5 0H0.5V18H18.5V0Z" fill="white"/>
</mask>
<g mask="url(#mask0_107_2927)">
<path d="M18.14 9.20448C18.14 8.56629 18.0828 7.95267 17.9764 7.36353H9.5V10.8449H14.3436C14.135 11.9699 13.501 12.9231 12.5478 13.5613V15.8195H15.4564C17.1582 14.2527 18.14 11.9453 18.14 9.20448Z" fill="#4285F4"/>
<path d="M9.49979 18C11.9298 18 13.967 17.194 15.4561 15.8195L12.5475 13.5613C11.7416 14.1013 10.7107 14.4204 9.49979 14.4204C7.15565 14.4204 5.1716 12.8372 4.46384 10.71H1.45703V13.0418C2.93798 15.9832 5.9816 18 9.49979 18Z" fill="#34A853"/>
<path d="M4.46405 10.7101C4.28405 10.1701 4.18181 9.59325 4.18181 9.00006C4.18181 8.40687 4.28405 7.83006 4.46405 7.29006V4.95825H1.45724C0.84776 6.17325 0.5 7.54782 0.5 9.00006C0.5 10.4523 0.84776 11.8269 1.45724 13.0419L4.46405 10.7101Z" fill="#FBBC04"/>
<path d="M9.49979 3.57957C10.8211 3.57957 12.0075 4.03362 12.9402 4.92543L15.5216 2.34405C13.963 0.89181 11.9257 0 9.49979 0C5.9816 0 2.93798 2.01681 1.45703 4.95819L4.46384 7.29C5.1716 5.16276 7.15565 3.57957 9.49979 3.57957Z" fill="#E94235"/>
</g>
</svg>
