<svg width="144" height="44" viewBox="0 0 144 44" fill="none" xmlns="http://www.w3.org/2000/svg">
<g filter="url(#filter0_d_192_20119)">
<rect x="4" width="136" height="36" rx="18" fill="#FAFAFA" shape-rendering="crispEdges"/>
<rect x="14" y="8" width="20" height="20" rx="10" fill="#376FA3"/>
<path fill-rule="evenodd" clip-rule="evenodd" d="M19.418 12.7448V12L20.118 12.2545L24.218 13.7455V21.6L20.118 23.65L19.418 24V23.2174V12.7448ZM20.118 22.8674V12.9994L23.518 14.2358V21.1674L20.118 22.8674ZM28.582 12.4365L24.2184 14.0868V21.5129L28.582 23.782V12.4365ZM27.9332 18.1504C27.9332 18.4265 27.7573 18.6504 27.5402 18.6504C27.3231 18.6504 27.1471 18.4265 27.1471 18.1504C27.1471 17.8742 27.3231 17.6504 27.5402 17.6504C27.7573 17.6504 27.9332 17.8742 27.9332 18.1504Z" fill="white"/>
<path d="M53.6621 21.0508V22.1309H42.4512V21.0508H47.3867V18.2207H43.7363V12.3965H52.3223V18.2207H48.6719V21.0508H53.6621ZM44.9941 13.4355V17.1953H51.0508V13.4355H44.9941ZM64.359 11.4258V18.3984H63.0602V11.4258H64.359ZM64.359 19.0137V23.5117H56.3062V19.0137H64.359ZM57.5914 20.0527V22.459H63.0875V20.0527H57.5914ZM57.7145 12.041C59.5875 12.041 60.9684 13.2168 60.9684 14.9395C60.9684 16.6211 59.5875 17.8105 57.7145 17.8105C55.8414 17.8105 54.4469 16.6211 54.4469 14.9395C54.4469 13.2168 55.8414 12.041 57.7145 12.041ZM57.7145 13.1348C56.5523 13.1348 55.7184 13.8457 55.7184 14.9395C55.7184 15.9922 56.5523 16.7168 57.7145 16.7168C58.8629 16.7168 59.6969 15.9922 59.6969 14.9395C59.6969 13.8457 58.8629 13.1348 57.7145 13.1348ZM76.1359 11.4258V20.709H74.8371V19.5332H72.3762V18.6172H74.8371V11.4258H76.1359ZM76.4367 22.3496V23.4023H67.591V19.8066H68.8762V22.3496H76.4367ZM65.8957 17.0176C68.1652 17.0039 71.2141 16.9766 73.8254 16.6484L73.9074 17.5781C72.8615 17.749 71.7609 17.8652 70.6809 17.9336V20.3262H69.382V18.002C68.1926 18.0566 67.051 18.0635 66.0598 18.0566L65.8957 17.0176ZM69.9016 11.8906C71.6926 11.8906 72.9367 12.752 72.9367 14.0508C72.9367 15.3496 71.6926 16.1836 69.9016 16.1836C68.0832 16.1836 66.8527 15.3496 66.8527 14.0508C66.8527 12.752 68.0832 11.8906 69.9016 11.8906ZM69.9016 12.8613C68.8078 12.8477 68.0695 13.3125 68.0832 14.0508C68.0695 14.7754 68.8078 15.2266 69.9016 15.2266C70.9543 15.2266 71.6926 14.7754 71.7062 14.0508C71.6926 13.3125 70.9543 12.8477 69.9016 12.8613ZM91.2543 11.4121V23.6621H90.0102V17.3867H88.4379V23.0332H87.2211V11.6582H88.4379V16.3203H90.0102V11.4121H91.2543ZM82.641 12.8613V19.3965C83.7758 19.3896 85.0131 19.3008 86.4008 19.0273L86.5375 20.1621C84.8559 20.4629 83.4477 20.5449 82.1352 20.5449H81.3422V12.8613H82.641ZM103.729 21.0645V22.1445H92.5176V21.0645H97.4531V18.5488H93.8027V12.2461H95.1016V14.3516H101.117V12.2461H102.402V18.5488H98.7383V21.0645H103.729ZM95.1016 17.4961H101.117V15.4043H95.1016V17.4961ZM114.754 11.4121V23.6621H113.509V17.3867H111.937V23.0332H110.72V11.6582H111.937V16.3203H113.509V11.4121H114.754ZM106.14 12.8613V19.3965C107.275 19.3896 108.512 19.3008 109.9 19.0273L110.037 20.1621C108.355 20.4629 106.947 20.5449 105.634 20.5449H104.841V12.8613H106.14ZM126.202 11.4121V23.6621H124.89V11.4121H126.202ZM122.552 12.7246C122.552 16.3066 121.021 19.4238 116.823 21.4336L116.14 20.3809C119.401 18.8291 120.987 16.6211 121.239 13.7637H116.728V12.7246H122.552Z" fill="black"/>
</g>
<defs>
<filter id="filter0_d_192_20119" x="0" y="0" width="144" height="44" filterUnits="userSpaceOnUse" color-interpolation-filters="sRGB">
<feFlood flood-opacity="0" result="BackgroundImageFix"/>
<feColorMatrix in="SourceAlpha" type="matrix" values="0 0 0 0 0 0 0 0 0 0 0 0 0 0 0 0 0 0 127 0" result="hardAlpha"/>
<feOffset dy="4"/>
<feGaussianBlur stdDeviation="2"/>
<feComposite in2="hardAlpha" operator="out"/>
<feColorMatrix type="matrix" values="0 0 0 0 0 0 0 0 0 0 0 0 0 0 0 0 0 0 0.04 0"/>
<feBlend mode="normal" in2="BackgroundImageFix" result="effect1_dropShadow_192_20119"/>
<feBlend mode="normal" in="SourceGraphic" in2="effect1_dropShadow_192_20119" result="shape"/>
</filter>
</defs>
</svg>
