<svg width="33" height="33" viewBox="0 0 33 33" fill="none" xmlns="http://www.w3.org/2000/svg">
<rect width="33" height="33" rx="16.5" fill="#EBEBEB"/>
<path d="M15.332 6.58008V15.3301H14.4434V10.8086H13.3105V14.8809H12.4609V6.75586H13.3105V10.0469H14.4434V6.58008H15.332ZM11.3965 7.63477V8.38672H9.04297V12.4395C10.1172 12.4297 10.9277 12.3809 11.8652 12.2051L11.9336 12.9668C10.8789 13.1816 9.98047 13.2207 8.70117 13.2305H8.11523V7.63477H11.3965ZM23.0898 6.57031V9.1875H24.3594V9.96875H23.0898V13.0059H22.1621V6.57031H23.0898ZM23.4609 14.3926V15.1445H17.543V12.332H18.4707V14.3926H23.4609ZM18.6758 7.17578C19.9941 7.17578 21 8.07422 21.0098 9.35352C21 10.623 19.9941 11.5312 18.6758 11.5312C17.3574 11.5312 16.3418 10.623 16.3516 9.35352C16.3418 8.07422 17.3574 7.17578 18.6758 7.17578ZM18.6758 7.98633C17.875 7.98633 17.25 8.54297 17.2598 9.35352C17.25 10.1641 17.875 10.7207 18.6758 10.7207C19.4863 10.7207 20.1016 10.1641 20.1016 9.35352C20.1016 8.54297 19.4863 7.98633 18.6758 7.98633ZM10.8789 20.1914C10.8789 21.3047 11.6504 22.3203 12.9785 22.7402L12.5391 23.4629C11.543 23.1455 10.8154 22.4863 10.4297 21.6562C10.0488 22.6133 9.28223 23.3701 8.23242 23.7363L7.75391 22.9941C9.12109 22.5449 9.94141 21.4121 9.95117 20.2012V19.957H8.02734V19.2051H12.7637V19.957H10.8789V20.1914ZM14.6973 18.5801V20.748H15.9668V21.5098H14.6973V23.834H13.7695V18.5801H14.6973ZM11.875 24.0488C13.6816 24.0488 14.7754 24.6445 14.7754 25.6699C14.7754 26.7051 13.6816 27.3203 11.875 27.3105C10.0488 27.3203 8.93555 26.7051 8.93555 25.6699C8.93555 24.6445 10.0488 24.0488 11.875 24.0488ZM11.875 24.7812C10.6055 24.7812 9.85352 25.1035 9.86328 25.6699C9.85352 26.2559 10.6055 26.5781 11.875 26.5781C13.1348 26.5781 13.8672 26.2559 13.8672 25.6699C13.8672 25.1035 13.1348 24.7812 11.875 24.7812ZM24.2227 25.4551V26.2168H16.2148V25.4551H19.7207V23.375H20.6387V25.4551H24.2227ZM20.6582 19.8008C20.6582 21.1875 22.1816 22.4863 23.8711 22.7695L23.4707 23.5312C22.0547 23.248 20.751 22.374 20.1699 21.168C19.5938 22.3691 18.3047 23.2578 16.8984 23.5312L16.4883 22.7695C18.168 22.4863 19.6816 21.1875 19.6816 19.8008V19.1367H20.6582V19.8008Z" fill="#666666"/>
</svg>
