<svg width="40" height="40" viewBox="0 0 40 40" fill="none" xmlns="http://www.w3.org/2000/svg">
<rect width="40" height="40" rx="20" fill="#D6EBFF"/>
<path d="M12.308 24H11.2307V18.0055H11.1892L9.50069 19.107V18.0815L11.2583 16.9282H12.308V24ZM18.0218 16.6899C18.0218 17.0444 18.1599 17.3909 18.4362 17.7293C18.7147 18.0677 19.0888 18.3577 19.5584 18.5994C20.028 18.8389 20.5356 18.9977 21.0812 19.076L20.7186 19.8115C20.2582 19.7355 19.8208 19.6077 19.4065 19.4282C18.9921 19.2486 18.6249 19.0276 18.3049 18.7652C17.985 18.5005 17.7329 18.2058 17.5487 17.8812C17.3669 18.2081 17.1148 18.5051 16.7925 18.7721C16.4725 19.0391 16.1042 19.2624 15.6875 19.442C15.2732 19.6215 14.8335 19.7493 14.3685 19.8253L14.0128 19.0967C14.563 19.0138 15.0717 18.8527 15.5391 18.6133C16.0064 18.3738 16.3781 18.0849 16.6544 17.7465C16.9306 17.4081 17.0687 17.0559 17.0687 16.6899V16.3032H18.0218V16.6899ZM13.5432 20.4814H21.5508V21.2376H18.0805V22.9296H17.162V21.2376H13.5432V20.4814ZM14.5411 22.1077H15.4665V23.8895H20.6634V24.6492H14.5411V22.1077ZM24.8191 16.4827C25.2541 16.4804 25.6432 16.5552 25.9862 16.7072C26.3315 16.8591 26.6008 17.0732 26.7942 17.3494C26.9899 17.6257 27.0877 17.9411 27.0877 18.2956C27.0877 18.6478 26.9899 18.962 26.7942 19.2383C26.6008 19.5145 26.3315 19.7297 25.9862 19.884C25.6432 20.0359 25.2541 20.1107 24.8191 20.1084C24.384 20.1107 23.9949 20.0359 23.6519 19.884C23.3089 19.7297 23.0407 19.5145 22.8474 19.2383C22.6563 18.962 22.5608 18.6478 22.5608 18.2956C22.5608 17.9411 22.6563 17.6257 22.8474 17.3494C23.0407 17.0732 23.3089 16.8591 23.6519 16.7072C23.9949 16.5552 24.384 16.4804 24.8191 16.4827ZM21.9392 20.7852C22.9866 20.7852 23.9938 20.7645 24.9606 20.7231C25.9298 20.6793 26.8425 20.5942 27.6989 20.4675L27.7645 21.1581C27.0394 21.294 26.2302 21.3941 25.337 21.4586V24.5628H24.4081V21.5104C23.7935 21.538 23.0108 21.5541 22.0601 21.5587L21.9392 20.7852ZM23.4586 18.2956C23.4563 18.5051 23.5127 18.6892 23.6278 18.8481C23.7452 19.0069 23.9075 19.1301 24.1146 19.2175C24.3218 19.305 24.5566 19.3476 24.8191 19.3453C25.0884 19.3476 25.3278 19.3062 25.5373 19.221C25.7491 19.1335 25.9137 19.0104 26.0311 18.8515C26.1485 18.6904 26.2072 18.5051 26.2072 18.2956C26.2072 18.0861 26.1485 17.9008 26.0311 17.7396C25.9137 17.5785 25.7491 17.4542 25.5373 17.3667C25.3278 17.2769 25.0884 17.2332 24.8191 17.2355C24.5566 17.2332 24.3218 17.2769 24.1146 17.3667C23.9075 17.4542 23.7452 17.5785 23.6278 17.7396C23.5127 17.9008 23.4563 18.0861 23.4586 18.2956ZM28.3066 16.0856H29.2182V24.8322H28.3066V16.0856Z" fill="#376FA3"/>
</svg>
