<svg width="40" height="40" viewBox="0 0 40 40" fill="none" xmlns="http://www.w3.org/2000/svg">
<rect width="40" height="40" rx="20" fill="#EBEBEB"/>
<path d="M15.7583 10.8488V14.9372H11.6595V10.8488H15.7583ZM12.5677 14.1982H14.8501V11.5981H12.5677V14.1982ZM12.654 18.6492V15.866H13.576V17.8895H18.5725V18.6492H12.654ZM17.2707 16.4807V10.0753H18.1996V12.6927H19.4669V13.4662H18.1996V16.4807H17.2707ZM26.5922 10.0787V11.8398H27.8594V12.6133H26.5922V14.4675H25.6633V10.0787H26.5922ZM20.1143 14.0981V10.4655H21.0466V13.3177C22.2206 13.3142 23.4568 13.2175 24.8035 12.9517L24.9174 13.7182C23.443 14.0186 22.1205 14.0981 20.829 14.0981H20.1143ZM20.9326 15.6001V14.8646H26.5922V17.0953H21.8753V17.9655H26.8891V18.7182H20.9534V16.3805H25.6598V15.6001H20.9326ZM18.1996 22.0787V23.8398H19.4669V24.6133H18.1996V26.4675H17.2707V22.0787H18.1996ZM11.7217 26.0981V22.4655H12.654V25.3177C13.828 25.3142 15.0642 25.2175 16.4109 24.9517L16.5249 25.7182C15.0504 26.0186 13.7279 26.0981 12.4365 26.0981H11.7217ZM12.5401 27.6001V26.8646H18.1996V29.0953H13.4827V29.9655H18.4965V30.7182H12.5608V28.3805H17.2673V27.6001H12.5401ZM26.7614 22.0787V25.4972H27.9216V26.2811H26.7614V30.8287H25.8359V22.0787H26.7614ZM19.5618 28.3115C20.6426 27.5035 20.9016 25.8667 20.9085 24.5649V23.6878H19.8656V22.9247H22.4002V23.6878H21.7821V24.5649C21.7821 25.5456 21.9029 26.8888 22.5797 27.8315C23.2393 26.9061 23.3705 25.5801 23.3774 24.5649V23.6878H22.7558V22.9247H25.1937V23.6878H24.2545V24.5649C24.2545 25.9081 24.51 27.5138 25.6011 28.3115L25.0038 28.9848C24.3857 28.5048 24.0162 27.7417 23.8056 26.8819C23.6018 27.759 23.2289 28.567 22.5728 29.0608C21.9237 28.5635 21.5507 27.7521 21.347 26.875C21.1364 27.7348 20.7703 28.5014 20.1592 28.9848L19.5618 28.3115Z" fill="#666666"/>
</svg>
