<svg width="40" height="40" viewBox="0 0 40 40" fill="none" xmlns="http://www.w3.org/2000/svg">
<rect width="40" height="40" rx="20" fill="#FDE1FA"/>
<path d="M15.7822 13.5176V14.2793H14.4248V18.8203H13.4971V10.0801H14.4248V13.5176H15.7822ZM8.8584 10.9297V15.8516C10.0791 15.8516 11.3535 15.749 12.7451 15.4609L12.8525 16.2422C11.3584 16.5449 9.97168 16.623 8.66309 16.623H7.94043V10.9297H8.8584ZM20.4346 10.8516V14.9336H16.3428V10.8516H20.4346ZM17.251 11.6035V14.2012H19.5264V11.6035H17.251ZM22.876 10.0703V12.6875H24.1455V13.4688H22.876V16.4863H21.9482V10.0703H22.876ZM23.2471 17.8926V18.6445H17.3291V15.8711H18.2568V17.8926H23.2471ZM27.2451 10.7051C28.6318 10.6953 29.6182 11.5547 29.6279 12.7852C29.6182 14.0156 28.6318 14.875 27.2451 14.875C25.8682 14.875 24.8525 14.0156 24.8623 12.7852C24.8525 11.5547 25.8682 10.6953 27.2451 10.7051ZM27.2451 11.5059C26.3955 11.5059 25.7705 12.0137 25.7803 12.7852C25.7705 13.5566 26.3955 14.0645 27.2451 14.0645C28.0947 14.0645 28.7197 13.5566 28.7197 12.7852C28.7197 12.0137 28.0947 11.5059 27.2451 11.5059ZM31.6299 10.0801V18.8496H30.7021V10.0801H31.6299ZM24.4424 16.1934C26.0342 16.1934 28.2412 16.1738 30.1553 15.9004L30.2236 16.5742C28.2412 16.9551 26.1221 16.9648 24.5596 16.9648L24.4424 16.1934ZM14.8613 23.6914C14.8613 24.8047 15.6328 25.8203 16.9609 26.2402L16.5215 26.9629C15.5254 26.6455 14.7979 25.9863 14.4121 25.1562C14.0312 26.1133 13.2646 26.8701 12.2148 27.2363L11.7363 26.4941C13.1035 26.0449 13.9238 24.9121 13.9336 23.7012V23.457H12.0098V22.7051H16.7461V23.457H14.8613V23.6914ZM18.6797 22.0801V24.248H19.9492V25.0098H18.6797V27.334H17.752V22.0801H18.6797ZM15.8574 27.5488C17.6641 27.5488 18.7578 28.1445 18.7578 29.1699C18.7578 30.2051 17.6641 30.8203 15.8574 30.8105C14.0312 30.8203 12.918 30.2051 12.918 29.1699C12.918 28.1445 14.0312 27.5488 15.8574 27.5488ZM15.8574 28.2812C14.5879 28.2812 13.8359 28.6035 13.8457 29.1699C13.8359 29.7559 14.5879 30.0781 15.8574 30.0781C17.1172 30.0781 17.8496 29.7559 17.8496 29.1699C17.8496 28.6035 17.1172 28.2812 15.8574 28.2812ZM28.2051 28.9551V29.7168H20.1973V28.9551H23.7031V26.875H24.6211V28.9551H28.2051ZM24.6406 23.3008C24.6406 24.6875 26.1641 25.9863 27.8535 26.2695L27.4531 27.0312C26.0371 26.748 24.7334 25.874 24.1523 24.668C23.5762 25.8691 22.2871 26.7578 20.8809 27.0312L20.4707 26.2695C22.1504 25.9863 23.6641 24.6875 23.6641 23.3008V22.6367H24.6406V23.3008Z" fill="#7C0A70"/>
</svg>
