<svg width="40" height="40" viewBox="0 0 40 40" fill="none" xmlns="http://www.w3.org/2000/svg">
<rect width="40" height="40" rx="20" fill="#D6EBFF"/>
<path d="M9.12155 23.2196L11.5732 20.7438C11.8702 20.4353 12.0969 20.1867 12.2535 19.9979C12.41 19.8092 12.5297 19.625 12.6126 19.4454C12.6977 19.2636 12.7403 19.0725 12.7403 18.8722C12.7403 18.6443 12.6828 18.4441 12.5677 18.2714C12.4526 18.0988 12.2949 17.9664 12.0946 17.8743C11.8966 17.7799 11.6745 17.7327 11.4282 17.7327C11.1703 17.7327 10.9436 17.7845 10.7479 17.8881C10.5546 17.9894 10.4049 18.1344 10.299 18.3232C10.1954 18.512 10.1436 18.7318 10.1436 18.9827H9.12155C9.12155 18.5592 9.22053 18.1851 9.41851 17.8605C9.61878 17.5336 9.89503 17.2804 10.2472 17.1008C10.6017 16.9213 11.0023 16.8315 11.4489 16.8315C11.8955 16.8315 12.2937 16.919 12.6436 17.0939C12.9936 17.2689 13.2663 17.5094 13.462 17.8156C13.66 18.1195 13.7601 18.4613 13.7624 18.8412C13.7601 19.1128 13.7083 19.3729 13.607 19.6215C13.5058 19.8702 13.3331 20.1476 13.0891 20.4537C12.8474 20.7576 12.5032 21.1282 12.0566 21.5656L10.6202 23.0262V23.078H13.8764V24H9.125L9.12155 23.2196ZM18.9866 16.6899C18.9866 17.0444 19.1248 17.3909 19.401 17.7293C19.6795 18.0677 20.0536 18.3577 20.5232 18.5994C20.9928 18.8389 21.5004 18.9977 22.046 19.076L21.6835 19.8115C21.223 19.7355 20.7857 19.6077 20.3713 19.4282C19.9569 19.2486 19.5898 19.0276 19.2698 18.7652C18.9498 18.5005 18.6977 18.2058 18.5136 17.8812C18.3317 18.2081 18.0796 18.5051 17.7573 18.7721C17.4374 19.0391 17.069 19.2624 16.6524 19.442C16.238 19.6215 15.7983 19.7493 15.3333 19.8253L14.9777 19.0967C15.5278 19.0138 16.0366 18.8527 16.5039 18.6133C16.9712 18.3738 17.343 18.0849 17.6192 17.7465C17.8955 17.4081 18.0336 17.0559 18.0336 16.6899V16.3032H18.9866V16.6899ZM14.508 20.4814H22.5156V21.2376H19.0453V22.9296H18.1268V21.2376H14.508V20.4814ZM15.506 22.1077H16.4314V23.8895H21.6282V24.6492H15.506V22.1077ZM25.7839 16.4827C26.219 16.4804 26.608 16.5552 26.951 16.7072C27.2963 16.8591 27.5657 17.0732 27.759 17.3494C27.9547 17.6257 28.0526 17.9411 28.0526 18.2956C28.0526 18.6478 27.9547 18.962 27.759 19.2383C27.5657 19.5145 27.2963 19.7297 26.951 19.884C26.608 20.0359 26.219 20.1107 25.7839 20.1084C25.3488 20.1107 24.9598 20.0359 24.6168 19.884C24.2738 19.7297 24.0056 19.5145 23.8122 19.2383C23.6212 18.962 23.5256 18.6478 23.5256 18.2956C23.5256 17.9411 23.6212 17.6257 23.8122 17.3494C24.0056 17.0732 24.2738 16.8591 24.6168 16.7072C24.9598 16.5552 25.3488 16.4804 25.7839 16.4827ZM22.9041 20.7852C23.9515 20.7852 24.9586 20.7645 25.9255 20.7231C26.8946 20.6793 27.8074 20.5942 28.6637 20.4675L28.7293 21.1581C28.0042 21.294 27.195 21.3941 26.3019 21.4586V24.5628H25.373V21.5104C24.7584 21.538 23.9757 21.5541 23.0249 21.5587L22.9041 20.7852ZM24.4234 18.2956C24.4211 18.5051 24.4775 18.6892 24.5926 18.8481C24.71 19.0069 24.8723 19.1301 25.0795 19.2175C25.2867 19.305 25.5215 19.3476 25.7839 19.3453C26.0532 19.3476 26.2927 19.3062 26.5021 19.221C26.7139 19.1335 26.8785 19.0104 26.9959 18.8515C27.1133 18.6904 27.172 18.5051 27.172 18.2956C27.172 18.0861 27.1133 17.9008 26.9959 17.7396C26.8785 17.5785 26.7139 17.4542 26.5021 17.3667C26.2927 17.2769 26.0532 17.2332 25.7839 17.2355C25.5215 17.2332 25.2867 17.2769 25.0795 17.3667C24.8723 17.4542 24.71 17.5785 24.5926 17.7396C24.4775 17.9008 24.4211 18.0861 24.4234 18.2956ZM29.2715 16.0856H30.1831V24.8322H29.2715V16.0856Z" fill="#376FA3"/>
</svg>
