<svg width="40" height="40" viewBox="0 0 40 40" fill="none" xmlns="http://www.w3.org/2000/svg">
<rect width="40" height="40" rx="20" fill="#D6EBFF"/>
<path d="M11.1319 24.0967C10.6508 24.0967 10.2192 24.015 9.83702 23.8515C9.45718 23.6881 9.15677 23.459 8.93577 23.1644C8.71708 22.8697 8.60198 22.5325 8.59047 22.1526H9.67818C9.68969 22.3552 9.7599 22.5336 9.88881 22.6878C10.02 22.8421 10.1927 22.9618 10.4068 23.047C10.6209 23.1298 10.8591 23.1713 11.1215 23.1713C11.4047 23.1713 11.6579 23.1229 11.8812 23.0262C12.1068 22.9296 12.2818 22.7937 12.4061 22.6188C12.5327 22.4438 12.596 22.2447 12.596 22.0214C12.5983 21.7866 12.5361 21.5783 12.4095 21.3964C12.2852 21.2145 12.1022 21.073 11.8605 20.9717C11.6211 20.8704 11.3356 20.8198 11.0041 20.8198H10.4033V19.9427H11.0041C11.2712 19.9427 11.5083 19.8966 11.7155 19.8046C11.9227 19.7102 12.0838 19.5778 12.1989 19.4075C12.3163 19.2371 12.375 19.0403 12.375 18.817C12.375 18.6029 12.3244 18.4141 12.2231 18.2507C12.1218 18.0849 11.9779 17.9572 11.7914 17.8674C11.6073 17.7776 11.392 17.7327 11.1457 17.7327C10.9063 17.7327 10.683 17.7753 10.4758 17.8605C10.2709 17.9434 10.1052 18.0631 9.97859 18.2196C9.85198 18.3762 9.78407 18.558 9.77486 18.7652H8.73895C8.75046 18.39 8.86441 18.0562 9.0808 17.7638C9.29719 17.4692 9.58725 17.2401 9.95097 17.0767C10.3147 16.9132 10.7164 16.8315 11.1561 16.8315C11.605 16.8315 12.0009 16.919 12.3439 17.0939C12.6892 17.2666 12.954 17.5002 13.1381 17.7949C13.3246 18.0872 13.4167 18.4095 13.4144 18.7617C13.4167 19.0242 13.366 19.2624 13.2624 19.4765C13.1611 19.6906 13.0161 19.8702 12.8273 20.0152C12.6386 20.1579 12.4176 20.2604 12.1644 20.3225V20.3778C12.4797 20.4215 12.7514 20.5193 12.9793 20.6713C13.2095 20.8232 13.3844 21.0177 13.5041 21.2548C13.6238 21.4919 13.6826 21.7601 13.6802 22.0594C13.6826 22.4461 13.5732 22.7949 13.3522 23.1057C13.1335 23.4141 12.8297 23.657 12.4406 23.8343C12.0516 24.0092 11.6153 24.0967 11.1319 24.0967ZM18.7796 16.6899C18.7796 17.0444 18.9177 17.3909 19.194 17.7293C19.4725 18.0677 19.8466 18.3577 20.3162 18.5994C20.7858 18.8389 21.2934 18.9977 21.839 19.076L21.4764 19.8115C21.016 19.7355 20.5786 19.6077 20.1643 19.4282C19.7499 19.2486 19.3827 19.0276 19.0627 18.7652C18.7428 18.5005 18.4907 18.2058 18.3065 17.8812C18.1247 18.2081 17.8726 18.5051 17.5503 18.7721C17.2303 19.0391 16.862 19.2624 16.4453 19.442C16.031 19.6215 15.5913 19.7493 15.1263 19.8253L14.7706 19.0967C15.3208 19.0138 15.8296 18.8527 16.2969 18.6133C16.7642 18.3738 17.136 18.0849 17.4122 17.7465C17.6884 17.4081 17.8266 17.0559 17.8266 16.6899V16.3032H18.7796V16.6899ZM14.301 20.4814H22.3086V21.2376H18.8383V22.9296H17.9198V21.2376H14.301V20.4814ZM15.2989 22.1077H16.2244V23.8895H21.4212V24.6492H15.2989V22.1077ZM25.5769 16.4827C26.012 16.4804 26.401 16.5552 26.744 16.7072C27.0893 16.8591 27.3586 17.0732 27.552 17.3494C27.7477 17.6257 27.8455 17.9411 27.8455 18.2956C27.8455 18.6478 27.7477 18.962 27.552 19.2383C27.3586 19.5145 27.0893 19.7297 26.744 19.884C26.401 20.0359 26.012 20.1107 25.5769 20.1084C25.1418 20.1107 24.7527 20.0359 24.4097 19.884C24.0667 19.7297 23.7986 19.5145 23.6052 19.2383C23.4141 18.962 23.3186 18.6478 23.3186 18.2956C23.3186 17.9411 23.4141 17.6257 23.6052 17.3494C23.7986 17.0732 24.0667 16.8591 24.4097 16.7072C24.7527 16.5552 25.1418 16.4804 25.5769 16.4827ZM22.697 20.7852C23.7445 20.7852 24.7516 20.7645 25.7184 20.7231C26.6876 20.6793 27.6004 20.5942 28.4567 20.4675L28.5223 21.1581C27.7972 21.294 26.988 21.3941 26.0948 21.4586V24.5628H25.166V21.5104C24.5513 21.538 23.7686 21.5541 22.8179 21.5587L22.697 20.7852ZM24.2164 18.2956C24.2141 18.5051 24.2705 18.6892 24.3856 18.8481C24.503 19.0069 24.6653 19.1301 24.8725 19.2175C25.0796 19.305 25.3144 19.3476 25.5769 19.3453C25.8462 19.3476 26.0856 19.3062 26.2951 19.221C26.5069 19.1335 26.6715 19.0104 26.7889 18.8515C26.9063 18.6904 26.965 18.5051 26.965 18.2956C26.965 18.0861 26.9063 17.9008 26.7889 17.7396C26.6715 17.5785 26.5069 17.4542 26.2951 17.3667C26.0856 17.2769 25.8462 17.2332 25.5769 17.2355C25.3144 17.2332 25.0796 17.2769 24.8725 17.3667C24.6653 17.4542 24.503 17.5785 24.3856 17.7396C24.2705 17.9008 24.2141 18.0861 24.2164 18.2956ZM29.0644 16.0856H29.976V24.8322H29.0644V16.0856Z" fill="#376FA3"/>
</svg>
